<svg width="84" height="85" viewBox="0 0 84 85" fill="none" xmlns="http://www.w3.org/2000/svg">
<path fill-rule="evenodd" clip-rule="evenodd" d="M28.158 20.3731C25.1179 22.0176 25.9256 24.6737 25.9256 28.71L25.9187 60.4409C25.9429 63.7124 28.1684 66.1739 31.4546 64.5711C35.1152 62.7842 47.0605 55.4346 51.6639 52.8689C53.5636 51.812 63.956 45.947 64.8607 44.9492C65.762 43.9549 66.1225 42.2792 65.4639 40.8086C64.6596 39.0077 57.8169 35.6841 55.8895 34.5437L35.8154 22.9528C34.0059 21.8889 30.5498 19.0764 28.158 20.3731Z" fill="#F48128"/>
<path fill-rule="evenodd" clip-rule="evenodd" d="M54.3121 82.3645L53.8649 81.923C53.8233 81.8882 53.7575 81.8361 53.7124 81.7978C53.5183 81.6483 53.2618 81.5023 53.0884 81.398C49.3585 79.1347 36.8447 71.2672 34.3904 70.0573L34.8688 76.416C25.8318 75.2096 17.2766 68.3816 12.3508 60.8548C4.57556 48.9857 5.63283 30.956 15.0408 20.4011C24.8265 9.42543 30.9725 10.5414 33.8185 8.58061C31.6935 7.19693 29.326 5.91406 27.1178 4.48518C25.5163 3.44915 25.2148 4.02279 23.4503 4.9128C16.923 8.19471 12.6801 11.7408 8.40945 17.286C-9.80671 40.9512 2.77301 77.9979 34.5568 83.6508C39.6282 84.5513 44.7274 84.4261 49.7814 83.4527C51.3275 83.1537 52.9116 82.5696 54.3121 82.3645Z" fill="#F48128"/>
<path fill-rule="evenodd" clip-rule="evenodd" d="M29.073 2.77813L48.9288 14.9045L48.4088 8.54233C71.4537 12.6969 85.9573 41.5074 68.4032 64.3591C65.1309 68.6215 57.4666 74.9419 49.4903 76.1344L50.2911 76.9305C50.3743 76.9896 50.8423 77.2399 51.0953 77.3825C51.6118 77.6745 52.3328 78.123 52.8112 78.422C57.8167 81.5405 56.6451 82.1524 63.6473 77.9735C67.8694 75.453 72.459 71.062 75.0034 67.4603C77.988 63.2327 80.5254 58.8105 82.0576 52.6256C88.0198 28.5571 72.2094 5.34386 48.4192 1.28319C43.8296 0.497477 32.6677 0.567009 29.073 2.77813Z" fill="#F48128"/>
</svg>
