<svg width="17" height="17" viewBox="0 0 17 17" fill="none" xmlns="http://www.w3.org/2000/svg">
<path d="M6.55204 0H1.23954C0.556023 0 0 0.556023 0 1.23954V4.42704C0 5.11069 0.556023 5.66671 1.23954 5.66671H6.55204C7.23569 5.66671 7.79171 5.11069 7.79171 4.42704V1.23954C7.79171 0.556023 7.23569 0 6.55204 0Z" fill="white"/>
<path d="M6.55204 7.08328H1.23954C0.556023 7.08328 0 7.63931 0 8.32295V15.7605C0 16.444 0.556023 17 1.23954 17H6.55204C7.23569 17 7.79171 16.444 7.79171 15.7605V8.32295C7.79171 7.63931 7.23569 7.08328 6.55204 7.08328Z" fill="white"/>
<path d="M15.7604 11.3333H10.4479C9.76427 11.3333 9.20825 11.8893 9.20825 12.573V15.7605C9.20825 16.444 9.76427 17 10.4479 17H15.7604C16.4439 17 17 16.444 17 15.7605V12.573C17 11.8893 16.4439 11.3333 15.7604 11.3333Z" fill="white"/>
<path d="M15.7604 0H10.4479C9.76427 0 9.20825 0.556023 9.20825 1.23954V8.67704C9.20825 9.36069 9.76427 9.91671 10.4479 9.91671H15.7604C16.4439 9.91671 17 9.36069 17 8.67704V1.23954C17 0.556023 16.4439 0 15.7604 0V0Z" fill="white"/>
</svg>
