<svg width="42" height="40" viewBox="0 0 42 40" fill="none" xmlns="http://www.w3.org/2000/svg">
<path d="M41.2932 27.092C40.8225 26.621 40.25 26.3853 39.5772 26.3853H27.8653L24.4326 29.8179C23.4566 30.76 22.3125 31.2313 21 31.2313C19.6878 31.2313 18.5433 30.7606 17.5674 29.8179L14.1599 26.3853H2.42305C1.7501 26.3853 1.17802 26.6213 0.706722 27.092C0.235515 27.5631 0 28.1352 0 28.8086V36.8853C0 37.5584 0.235515 38.1305 0.706722 38.6016C1.17793 39.0726 1.75001 39.308 2.42305 39.308H39.5773C40.2501 39.308 40.8226 39.0726 41.2933 38.6016C41.7647 38.1305 42 37.5584 42 36.8853V28.8086C42 28.1352 41.7647 27.5631 41.2932 27.092ZM31.8286 35.598C31.5084 35.9178 31.1297 36.0775 30.6922 36.0775C30.2547 36.0775 29.8765 35.9178 29.5564 35.598C29.2369 35.2782 29.0772 34.8997 29.0772 34.4625C29.0772 34.0251 29.2369 33.646 29.5564 33.3267C29.8765 33.0067 30.2547 32.8466 30.6922 32.8466C31.1297 32.8466 31.5084 33.0067 31.8286 33.3267C32.148 33.6459 32.3078 34.025 32.3078 34.4625C32.3078 34.8997 32.148 35.2782 31.8286 35.598ZM38.2897 35.598C37.9702 35.9178 37.5914 36.0775 37.1538 36.0775C36.7164 36.0775 36.3379 35.9178 36.0181 35.598C35.6986 35.2782 35.5389 34.8997 35.5389 34.4625C35.5389 34.0251 35.6986 33.646 36.0181 33.3267C36.3378 33.0067 36.7163 32.8466 37.1538 32.8466C37.5913 32.8466 37.9701 33.0067 38.2897 33.3267C38.6094 33.6459 38.7694 34.025 38.7694 34.4625C38.7694 34.8997 38.6097 35.2782 38.2897 35.598Z" fill="#00326F" fill-opacity="0.57"/>
<path d="M19.8644 27.521C20.1674 27.8404 20.546 28.0002 21.0001 28.0002C21.4546 28.0002 21.8327 27.8404 22.1359 27.521L33.4437 16.2131C33.9652 15.7252 34.0832 15.1361 33.797 14.4462C33.5115 13.7901 33.0149 13.4621 32.3079 13.4617H25.8462V2.15398C25.8462 1.71655 25.6861 1.3379 25.367 1.01822C25.0469 0.698456 24.6685 0.538528 24.2312 0.538528H17.769C17.3318 0.538528 16.9531 0.698456 16.6333 1.01822C16.3137 1.3379 16.1538 1.71646 16.1538 2.15398V13.4618H9.69221C8.98513 13.4618 8.489 13.7902 8.20291 14.4463C7.917 15.1359 8.03467 15.7253 8.55645 16.2132L19.8644 27.521Z" fill="#00326F" fill-opacity="0.57"/>
</svg>
