<svg width="15" height="15" viewBox="0 0 15 15" fill="none" xmlns="http://www.w3.org/2000/svg">
<path d="M14.5422 4.10033L10.8997 0.457764C10.6042 0.162656 10.2124 0 9.79491 0H5.20509C4.78761 0 4.39576 0.162656 4.10036 0.457764L0.457764 4.10033C0.162363 4.39544 0 4.7879 0 5.20538V9.79462C0 10.2121 0.162363 10.6046 0.457764 10.8997L4.10033 14.5422C4.39576 14.8373 4.78761 15 5.20509 15H9.79494C10.2124 15 10.6043 14.8373 10.8997 14.5422L14.5422 10.8997C14.8376 10.6046 15 10.2121 15 9.79462V5.20538C15 4.7879 14.8376 4.39544 14.5422 4.10033ZM11.8628 6.52099L10.6775 10.6012C10.224 12.1118 8.86169 13.125 7.2876 13.125C5.33692 13.125 3.75 11.5378 3.75 9.58711V4.6875C3.75 4.17053 4.17053 3.75 4.6875 3.75C4.79675 3.75 4.90233 3.76893 5.00001 3.80341V3.12501C5.00001 2.60804 5.42054 2.18751 5.93751 2.18751C6.10474 2.18751 6.26162 2.23146 6.39771 2.30836C6.56435 2.04803 6.85608 1.875 7.18749 1.875C7.619 1.875 7.9834 2.16826 8.09203 2.56591C8.19885 2.52349 8.31542 2.49999 8.4375 2.49999C8.95447 2.49999 9.375 2.92052 9.375 3.43749V7.27081L9.7577 6.60797C9.96583 6.27349 10.2844 6.0501 10.6592 5.96924C11.0358 5.88806 11.4166 5.96068 11.7359 6.1737C11.8494 6.2494 11.9006 6.38977 11.8628 6.52099Z" fill="#E00F00"/>
</svg>
