<?xml version="1.0" encoding="utf-8"?>
<!-- Generator: Adobe Illustrator 25.1.0, SVG Export Plug-In . SVG Version: 6.00 Build 0)  -->
<svg version="1.1" xmlns="http://www.w3.org/2000/svg" xmlns:xlink="http://www.w3.org/1999/xlink" x="0px" y="0px"
	 viewBox="0 0 400 400" style="enable-background:new 0 0 400 400;" xml:space="preserve">
<style type="text/css">
	.st0{fill:#F9F9F9;}
	.st1{fill:none;stroke:#FFFFFF;stroke-width:1.2258;stroke-miterlimit:10;}
	.st2{fill:url(#SVGID_1_);}
	.st3{fill:none;stroke:#94C3FF;stroke-width:0.9256;stroke-miterlimit:10;}
	.st4{fill:#A6D0F4;}
	.st5{fill:url(#SVGID_2_);}
	.st6{fill:#C7D8F2;}
	.st7{fill:#EAF1F7;}
	.st8{fill:#94C3FF;}
	.st9{fill:#8182EE;}
	.st10{fill:#4B5CC0;}
	.st11{fill:#CBDCEB;}
	.st12{fill:#25437F;}
	.st13{fill:#FF8D68;}
	.st14{fill:#79AEF5;}
	.st15{fill:#254DA1;}
	.st16{fill:#86E563;}
	.st17{fill:#2AB774;}
	.st18{fill:#FFFFFF;}
	.st19{fill:#FF7363;}
	.st20{fill:#FF465C;}
	.st21{fill:#FF8E54;}
	.st22{fill:#FF5F4D;}
	.st23{fill:#F9FBFC;}
	.st24{fill:#253C72;}
	.st25{fill:#252F4C;}
	.st26{fill:#171E26;}
	.st27{fill:#1F2F3F;}
	.st28{fill:#BDC5CB;}
	.st29{fill:#4385FF;}
	.st30{fill:#00609B;}
	.st31{fill:#0099CE;}
	.st32{fill:#0050AF;}
	.st33{opacity:0.4;fill:#0050AF;}
	.st34{fill:#E9F3FE;}
	.st35{fill:#AFCDFB;}
	.st36{fill:#C0D8F9;}
	.st37{fill:#D4E3F4;}
	.st38{fill:#699DEE;}
	.st39{clip-path:url(#SVGID_4_);}
	.st40{fill:#E49963;}
	.st41{fill:#A8D2A0;}
	.st42{fill:#163560;}
	.st43{fill:#D68D5D;}
	.st44{fill:#82B479;}
	.st45{fill:#2B478B;}
	.st46{opacity:0.4;fill:#FFFFFF;}
	.st47{fill:#CCE2FF;}
	.st48{fill:#2E5B9A;}
	.st49{fill:#F09959;}
	.st50{fill:#6791C9;}
	.st51{fill:#75A1DE;}
	.st52{fill:#F37168;}
	.st53{fill:#D54A41;}
	.st54{fill:#E38540;}
	.st55{fill:#F2E5DE;}
	.st56{fill:#303C60;}
	.st57{fill:#9EC8FF;}
	.st58{opacity:0.8;}
	.st59{fill:#2E6300;}
	.st60{fill:#99BBEB;}
	.st61{fill:#9BD6E8;}
	.st62{fill:#3A384D;}
	.st63{fill:#7A4E34;}
	.st64{opacity:0.2;fill:#99BBEB;}
	.st65{fill:#2E2D3D;}
	.st66{fill:#D5E1E8;}
	.st67{fill:#BDCCD4;}
	.st68{fill:#F44336;}
</style>
<g id="BACKGROUND">
</g>
<g id="OBJECTS">
	<polygon class="st0" points="199.44,400 400,268.88 203.52,138.39 12.91,254.64 0,258.06 	"/>
	<g>
		<g>
			<path class="st30" d="M228.92,154.92l12.47,148.24c0,0,1.31,8.99-5.38,9c-10.99,0.03-54.7,0-54.7,0s8.27-1.87,8.17-6.08
				c-0.12-4.96-14.57-152.56-14.57-152.56L228.92,154.92z"/>
			<path class="st31" d="M177.76,309.46c2.16,0.01,43.91,0.14,54.61,0c4.66-0.06,5.48-4.15,5.52-6.79c0.02-1.27-0.14-2.21-0.14-2.21
				l-0.32-3.85l-0.83-9.82l-0.73-8.68l-0.94-11.15l-0.79-9.41l-8.86-105.33l-54.01-1.4c0,0,6.09,61.77,10.39,106.73
				c0.48,5.01,0.94,9.81,1.36,14.3c0.14,1.43,0.27,2.83,0.4,4.19c0.4,4.25,0.76,8.16,1.08,11.61c0.17,1.82,0.32,3.51,0.46,5.05
				c0.55,6.06,0.87,9.94,0.88,10.67c0,0.43-0.03,0.83-0.11,1.2C184.85,309.31,178.57,309.46,177.76,309.46z"/>
			<polygon class="st30" points="100.78,74.25 360.09,74.25 329.72,196.23 325.56,212.94 311.42,269.75 48.65,269.75 			"/>
			<polygon class="st31" points="360.09,74.25 364.3,75.65 317.01,274 311.42,269.75 			"/>
			<polygon class="st31" points="317.01,274 55.86,274 48.65,269.75 311.42,269.75 			"/>
			<rect x="168.76" y="309.52" class="st31" width="56.54" height="2.69"/>
			<polygon class="st32" points="183.13,273.99 183.43,276.05 236.6,286.79 235.87,278.12 235.53,273.99 			"/>
			<path class="st33" d="M177.76,309.46c2.16,0.01,43.91,0.14,54.61,0c4.66-0.06,5.48-4.15,5.52-6.79l-52.93-9.96
				c0.55,6.06,0.87,9.94,0.88,10.67c0,0.43-0.03,0.83-0.11,1.2C184.85,309.31,178.57,309.46,177.76,309.46z"/>
			<polygon class="st33" points="199.4,231.34 311.42,269.75 320.98,231.32 			"/>
			<polygon class="st31" points="100.78,74.25 360.09,74.25 321.01,231.32 58.71,231.37 			"/>
		</g>
		<path class="st31" d="M173.07,251.23c0.75-3.85,4.48-6.98,8.33-6.98c3.85,0,6.37,3.12,5.62,6.98c-0.75,3.85-4.48,6.98-8.33,6.98
			C174.83,258.21,172.32,255.09,173.07,251.23z"/>
		<polygon class="st34" points="70.94,224.56 313.73,224.56 341.22,115.03 343.33,106.63 345.13,99.47 349.35,82.67 110.06,82.67 
			105.42,99.47 103.45,106.63 101.13,115.03 		"/>
		<polygon class="st30" points="110.06,82.67 349.35,82.67 345.13,99.47 105.42,99.47 		"/>
		<g>
			<path class="st34" d="M337.87,88.16c1.16,0,1.87,0.94,1.58,2.1c-0.29,1.16-1.46,2.1-2.62,2.1c-1.16,0-1.87-0.94-1.58-2.1
				C335.54,89.1,336.71,88.16,337.87,88.16z"/>
			<path class="st34" d="M330.89,88.16c1.16,0,1.87,0.94,1.58,2.1c-0.29,1.16-1.46,2.1-2.62,2.1c-1.16,0-1.87-0.94-1.58-2.1
				C328.56,89.1,329.73,88.16,330.89,88.16z"/>
			<path class="st34" d="M320.76,90.26c0.29-1.16,1.46-2.1,2.62-2.1c1.16,0,1.87,0.94,1.58,2.1c-0.29,1.16-1.46,2.1-2.62,2.1
				S320.47,91.42,320.76,90.26z"/>
		</g>
		<g>
			<polygon class="st35" points="204.03,199.81 90.68,199.81 129.43,43.05 242.77,43.05 			"/>
			<polygon class="st36" points="187.1,190.03 73.75,190.03 112.5,33.27 225.84,33.27 			"/>
			<polygon class="st37" points="168.75,178.85 55.4,178.85 94.15,22.09 207.5,22.09 			"/>
			<polygon class="st38" points="223.53,43.05 187.67,189.09 93.44,190.03 190.52,192.16 			"/>
			<polygon class="st38" points="204.71,33.27 170.64,177.91 76.41,178.85 172.24,181.22 			"/>
			<polygon class="st34" points="121.53,76.42 89.83,76.42 99.75,36.6 131.45,36.6 			"/>
			<polygon class="st35" points="193.9,42.1 137.1,42.1 138.5,36.6 195.29,36.6 			"/>
			<polygon class="st35" points="191.33,53.39 134.54,53.39 135.94,47.89 192.73,47.89 			"/>
			<polygon class="st35" points="188.66,64.69 131.86,64.69 133.26,59.18 190.05,59.18 			"/>
			<polygon class="st35" points="185.51,75.98 128.72,75.98 130.11,70.48 186.91,70.48 			"/>
			<polygon class="st35" points="185.51,87.74 81.54,87.74 82.94,82.24 186.91,82.24 			"/>
			<polygon class="st35" points="182.74,99.5 78.77,99.5 80.17,94 184.13,94 			"/>
			<polygon class="st35" points="178.89,112.74 74.93,112.74 76.32,107.24 180.29,107.24 			"/>
			<polygon class="st35" points="175.4,124.18 71.43,124.18 72.83,118.68 176.8,118.68 			"/>
			<g>
				<defs>
					<polygon id="SVGID_3_" points="121.53,76.42 89.83,76.42 99.75,36.6 131.45,36.6 					"/>
				</defs>
				<clipPath id="SVGID_1_">
					<use xlink:href="#SVGID_3_"  style="overflow:visible;"/>
				</clipPath>
				<g style="clip-path:url(#SVGID_1_);">
					<path class="st40" d="M124.3,80.38c0,0,1.86-0.85,2.58-0.59c0.73,0.26,2.69,1.11,2.65,1.96c-0.04,0.85-3.2,1.8-5.31,0.76
						C122.11,81.48,124.3,80.38,124.3,80.38z"/>
					<path class="st41" d="M124.85,82.71c-0.03,0.1-0.08,0.2-0.13,0.29c-0.63,1.01-10.93,1.06-12.11,0.21
						c-0.53-0.38-0.69-5.59-0.7-11.24c-0.02-6.98,0.18-14.63,0.18-14.63s4.03,1.87,4.23,4.17c0.2,2.3-1.5,16.14-0.32,16.99
						c1.18,0.85,6.61,0.96,8.42,1.49C124.41,80,125.18,81.65,124.85,82.71z"/>
					<path class="st42" d="M114.42,41.47c-0.7-0.73-1.86-0.8-2.6-0.86c0.21-0.17,0.6-0.19,0.6-0.19c-0.45-0.13-1.52,0.19-1.52,0.19
						s-3.6-2.47-6.04,2.36c0,0,0.36-0.34,0.84-0.72c-1.41,2.78-0.94,7.32,2.21,8.53C109.95,51.56,121.65,48.99,114.42,41.47z"/>
					<path class="st40" d="M112.24,58.5c0.02,0.01-2.18,0.81-3.67,0.19c-1.41-0.59-2.11-2.6-2.09-2.6c0.63-0.04,0.92-0.87,1.38-4.51
						l0.27,0.09l4.57,1.54c0,0-0.3,1.46-0.48,2.85C112.06,57.22,111.99,58.34,112.24,58.5z"/>
					<path class="st43" d="M112.7,53.2c0,0-0.3,1.46-0.48,2.85c-2.62-0.41-3.69-2.99-4.09-4.39L112.7,53.2z"/>
					<path class="st42" d="M107.71,51.09c0,0-1.09-2.35-1.18-4.25c-0.06-1.36,1.25-6.19,6.1-4.84c0,0,1.42,0.33,2.65,1.41
						c0.98,0.86,2.33,2.63,0.04,6.7l-0.64,1.39L107.71,51.09z"/>
					<path class="st40" d="M113.4,54.64c0,0-6.22-0.7-5.73-4.57c0.5-3.87,0.03-6.57,4.02-6.28c3.99,0.29,4.58,1.86,4.72,3.19
						C116.57,48.31,115.04,54.72,113.4,54.64z"/>
					<path class="st44" d="M113.81,63.4c-0.05-0.45,0.92-0.67,1.1-0.24c0.33,0.79,0.3,1.73,0.37,2.49c0.21,2.17-0.65,5-0.65,5
						L113.81,63.4z"/>
					<path class="st42" d="M116.52,44.8c-0.81-1.29-1.57-1.13-2.02-0.83c-1.08-2.18-5.7,0.17-5.7,0.17
						c-0.78,2.72-2.98,4.05-2.98,4.05s1.04,0.85,3.74,0.51c2.12-0.26,3.99-2.99,4.69-4.14c0.33,0.38,1.01,1.24,1.14,2.01
						c0.18,1.03,0.06,3.07,0.66,3.08C116.05,49.65,117.73,46.73,116.52,44.8z"/>
					<path class="st18" d="M112.33,52.11c0,0,0.05,0.51,1.28,0.59c0,0,1.03,0.07,1.07-0.47C114.69,52.23,113.74,51.71,112.33,52.11z
						"/>
					<path class="st44" d="M124.85,82.71c-0.03,0.1-0.08,0.2-0.13,0.29c-0.63,1.01-10.93,1.06-12.11,0.21
						c-0.53-0.38-0.7-6.86,0.75-12.44c0.34,3.35-0.29,10.04,1.47,10.59C116.82,81.98,122.24,81.99,124.85,82.71z"/>
					<path class="st41" d="M114.98,70.95c-4.09,11.81-2.23,13.94-3.69,14.97c-0.01,0-1.23,0.35-1.23,0.36
						c-1.52,1.01-1.36-0.43-5.89,0.87c-2.16,0.62-4.92,1.45-7.3,1.85c-0.89,0.15-1.73,0.24-2.46,0.23c-1.4-0.02-2.39-0.39-2.61-1.36
						c-0.62-2.83,4.98-9.4,4.45-14.45c0-0.04-0.01-0.09-0.01-0.13c-0.03-0.44,0.02-0.93,0.13-1.47c0.57-2.7,2.81-6.45,5.04-9.61
						c2.46-3.48,4.9-6.25,5.07-6.12c4.8,3.76,5.61,1.26,5.61,1.26S116.37,66.92,114.98,70.95z"/>
					<path class="st44" d="M110.49,86.16C110.49,86.17,110.5,86.16,110.49,86.16c-1.52,1.01-1.8-0.31-6.33,0.99
						c-2.16,0.62-4.92,1.45-7.3,1.85c-1.19,0.05-2.09,0.12-2.46,0.23c-1.4-0.02-2.39-0.39-2.61-1.36c-0.62-2.83,4.98-9.4,4.45-14.45
						c0-0.04-0.01-0.09-0.01-0.13c-0.04-0.5,0.01-0.98,0.13-1.47c0.52-2.04,2.33-4.1,4.49-7.15c1,1.37,9.87,1.08,6.25,12.89
						C105.99,81.17,110.33,83.22,110.49,86.16z"/>
					<path class="st40" d="M109.99,86.72c0,0,1.97-0.21,2.8,0.26c0.83,0.47,2.46,1.61,2.24,2.07c-0.23,0.47-2.34,0.46-3.15-0.14
						c-0.81-0.6-1.54-0.07-2.57-0.56C108.29,87.86,109.99,86.72,109.99,86.72z"/>
					<path class="st41" d="M106.48,56.09c0,0-7.08-0.82-8.78,2.42c-1.71,3.24-2.87,15.27-1.49,19.11
						c1.38,3.84,11.27,10.07,12.41,10.42c1.14,0.35,2.11-1.36,2.08-1.56c-0.02-0.2-9.87-10.54-9.7-11.46
						C101.17,74.11,106.48,56.09,106.48,56.09z"/>
				</g>
			</g>
		</g>
		<g>
			<g>
				
					<rect x="278.35" y="154.35" transform="matrix(0.7071 -0.7071 0.7071 0.7071 -33.9261 246.7159)" class="st45" width="5.01" height="19.91"/>
				<path class="st31" d="M363.74,245.88l-1.32,1.32c-2.41,2.41-6.31,2.41-8.71,0l-68.98-68.98c-2.41-2.41-2.41-6.31,0-8.71
					l1.32-1.32c2.41-2.41,6.31-2.41,8.71,0l68.98,68.98C366.14,239.57,366.14,243.47,363.74,245.88z"/>
				<path class="st30" d="M190.43,73.89c-23,23-23,60.28,0,83.27c23,23,60.28,23,83.27,0c23-23,23-60.28,0-83.27
					C250.71,50.9,213.43,50.9,190.43,73.89z M269.12,152.58c-20.46,20.46-53.64,20.46-74.1,0c-20.46-20.46-20.46-53.64,0-74.1
					c20.46-20.46,53.64-20.46,74.1,0C289.58,98.94,289.58,132.12,269.12,152.58z"/>
			</g>
		</g>
		<g>
			<path class="st46" d="M255.27,68.17l-70.17,70.17c1.14,2.32,2.46,4.54,3.92,6.65l72.9-72.9
				C259.81,70.63,257.59,69.32,255.27,68.17z"/>
			<path class="st46" d="M250.46,66.09c-5.71-2.14-11.9-3.31-18.36-3.31c-28.94,0-52.4,23.46-52.4,52.4
				c0,6.46,1.17,12.64,3.31,18.36L250.46,66.09z"/>
			<path class="st46" d="M208.89,162.17c7,3.46,14.87,5.41,23.21,5.41c28.94,0,52.4-23.46,52.4-52.4c0-8.34-1.95-16.21-5.41-23.21
				L208.89,162.17z"/>
		</g>
	</g>
</g>
</svg>
