<svg width="19" height="19" viewBox="0 0 19 19" fill="none" xmlns="http://www.w3.org/2000/svg">
<path d="M16.8838 3.5083C16.8838 4.78741 15.8469 5.8243 14.568 5.8243C13.2888 5.8243 12.252 4.78741 12.252 3.5083C12.252 2.22933 13.2888 1.19244 14.568 1.19244C15.8469 1.19244 16.8838 2.22933 16.8838 3.5083V3.5083Z" fill="#FF9400"/>
<path d="M10.5595 6.5082L9.46028 4.85988V2.04739C9.46028 0.925125 8.55516 0 7.41332 0H2.04739C0.911354 0 0 0.919617 0 2.04739V5.32635C0 6.45152 0.90802 7.3736 2.04739 7.3736H10.0964C10.5398 7.3736 10.8059 6.87785 10.5595 6.5082V6.5082ZM4.71463 5.28693H2.95715C2.65738 5.28693 2.3995 5.0563 2.38558 4.75681C2.37094 4.43703 2.6252 4.17365 2.94164 4.17365H4.73043C5.0463 4.17365 5.30113 4.43703 5.28635 4.75667C5.27258 5.0563 5.01455 5.28693 4.71463 5.28693ZM6.51907 3.19996H2.95744C2.65781 3.19996 2.40008 2.96991 2.38573 2.67072C2.37036 2.35094 2.62491 2.08668 2.94164 2.08668H6.50327C6.80319 2.08668 7.06122 2.31731 7.07499 2.61694C7.08978 2.93657 6.83494 3.19996 6.51907 3.19996Z" fill="#FF9400"/>
<path d="M4.32266 13.8103C1.92519 13.8186 0 15.7979 0 18.1953V18.3174C0 18.6944 0.305573 19 0.68261 19H7.9933C8.37034 19 8.67591 18.6944 8.67591 18.3174V18.1482C8.67591 15.7473 6.72549 13.8019 4.32266 13.8103V13.8103Z" fill="#FF9400"/>
<path d="M7.06964 11.0787C7.06964 12.5873 5.84677 13.8103 4.33804 13.8103C2.82946 13.8103 1.60645 12.5873 1.60645 11.0787C1.60645 9.57015 2.82946 8.34714 4.33804 8.34714C5.84677 8.34714 7.06964 9.57015 7.06964 11.0787Z" fill="#FF9400"/>
<path d="M18.0807 8.94335H11.0547C11.2618 7.18703 12.7555 5.82428 14.5679 5.82428C16.3799 5.82428 17.8735 7.18703 18.0807 8.94335V8.94335Z" fill="#FF9400"/>
<path d="M18.4434 10.0938C18.7509 10.0938 19.0001 10.3429 19.0001 10.6504V17.2511C19.0001 17.5672 18.7362 17.8222 18.4163 17.807C18.1173 17.7928 17.8868 17.5349 17.8868 17.2351V16.615H9.5695C9.19536 15.3414 8.36823 14.2593 7.27466 13.5575C7.84087 12.8877 8.18311 12.0223 8.18311 11.0786C8.18311 10.7384 8.13847 10.4085 8.05497 10.0938H18.4434Z" fill="#FF9400"/>
</svg>
