<svg id="Layer_1" data-name="Layer 1" xmlns="http://www.w3.org/2000/svg" viewBox="0 0 161.14 141.89"><path d="M139,141.68c-15.52,13.55-32.4,19-51.49,15.92a57.25,57.25,0,0,1-35.53-20.2C32.72,114.58,33,82.6,52.24,60c18.33-21.53,50.69-26.86,75-12.78,22.89,13.27,39.8,45.2,22.59,80.56,7,4.09,14.12,8.24,21.23,12.34q9.47,5.46,19,10.86c6,3.43,9.27,8.63,8.73,15.51-.51,6.36-3.74,11.32-10,13.61C182,182.51,176,181.14,171,176q-14.41-14.75-28.69-29.63A39.64,39.64,0,0,1,139,141.68ZM142.35,99A45.08,45.08,0,1,0,97.47,144,45,45,0,0,0,142.35,99Z" transform="translate(-37.65 -39.35)"/><path d="M92.38,123.64c.56-4.5,5.24-8.69.11-14h9.37c-5.14,5.2-.83,9.37.71,14.82,2.72-4.23,4.91-7.69,7.15-11.13,1.9-2.9,4.33-3.94,7.6-2.13,4,2.21,8,4.38,12.26,6.73-7.23,12-17,18.29-29.93,19.16-13.76.92-24.82-4.33-32.83-15.73-1.37-2-1.65-3.64.67-4.93,3.61-2,7.1-4.49,11-5.6,1.74-.5,4.89,1.29,6.34,3,2.54,2.94,4.27,6.58,6.35,9.93Z" transform="translate(-37.65 -39.35)"/><path d="M80.26,85.2c0-14.15,6.45-20.85,16.7-20.87,10.46,0,16.69,6.41,16.71,17.3,0,7.45-2.36,14-7.78,19.22s-12.41,5.23-17.75.05S80.29,89.18,80.26,85.2Z" transform="translate(-37.65 -39.35)"/></svg>