<?xml version="1.0" encoding="utf-8"?>
<!-- Generator: Adobe Illustrator 25.1.0, SVG Export Plug-In . SVG Version: 6.00 Build 0)  -->
<svg version="1.1" xmlns="http://www.w3.org/2000/svg" xmlns:xlink="http://www.w3.org/1999/xlink" x="0px" y="0px"
	 viewBox="0 0 400 400" style="enable-background:new 0 0 400 400;" xml:space="preserve">
<style type="text/css">
	.st0{fill:#F9F9F9;}
	.st1{fill:none;stroke:#FFFFFF;stroke-width:1.2258;stroke-miterlimit:10;}
	.st2{fill:url(#SVGID_1_);}
	.st3{fill:none;stroke:#94C3FF;stroke-width:0.9256;stroke-miterlimit:10;}
	.st4{fill:#A6D0F4;}
	.st5{fill:url(#SVGID_2_);}
	.st6{fill:#C7D8F2;}
	.st7{fill:#EAF1F7;}
	.st8{fill:#94C3FF;}
	.st9{fill:#8182EE;}
	.st10{fill:#4B5CC0;}
	.st11{fill:#CBDCEB;}
	.st12{fill:#25437F;}
	.st13{fill:#FF8D68;}
	.st14{fill:#79AEF5;}
	.st15{fill:#254DA1;}
	.st16{fill:#86E563;}
	.st17{fill:#2AB774;}
	.st18{fill:#FFFFFF;}
	.st19{fill:#FF7363;}
	.st20{fill:#FF465C;}
	.st21{fill:#FF8E54;}
	.st22{fill:#FF5F4D;}
	.st23{fill:#F9FBFC;}
	.st24{fill:#253C72;}
	.st25{fill:#252F4C;}
	.st26{fill:#171E26;}
	.st27{fill:#1F2F3F;}
	.st28{fill:#BDC5CB;}
	.st29{fill:#4385FF;}
	.st30{fill:#00609B;}
	.st31{fill:#0099CE;}
	.st32{fill:#0050AF;}
	.st33{opacity:0.4;fill:#0050AF;}
	.st34{fill:#E9F3FE;}
	.st35{fill:#AFCDFB;}
	.st36{fill:#C0D8F9;}
	.st37{fill:#D4E3F4;}
	.st38{fill:#699DEE;}
	.st39{clip-path:url(#SVGID_4_);}
	.st40{fill:#E49963;}
	.st41{fill:#A8D2A0;}
	.st42{fill:#163560;}
	.st43{fill:#D68D5D;}
	.st44{fill:#82B479;}
	.st45{fill:#2B478B;}
	.st46{opacity:0.4;fill:#FFFFFF;}
	.st47{fill:#CCE2FF;}
	.st48{fill:#2E5B9A;}
	.st49{fill:#F09959;}
	.st50{fill:#6791C9;}
	.st51{fill:#75A1DE;}
	.st52{fill:#F37168;}
	.st53{fill:#D54A41;}
	.st54{fill:#E38540;}
	.st55{fill:#F2E5DE;}
	.st56{fill:#303C60;}
	.st57{fill:#9EC8FF;}
	.st58{opacity:0.8;}
	.st59{fill:#2E6300;}
	.st60{fill:#99BBEB;}
	.st61{fill:#9BD6E8;}
	.st62{fill:#3A384D;}
	.st63{fill:#7A4E34;}
	.st64{opacity:0.2;fill:#99BBEB;}
	.st65{fill:#2E2D3D;}
	.st66{fill:#D5E1E8;}
	.st67{fill:#BDCCD4;}
	.st68{fill:#F44336;}
</style>
<g id="BACKGROUND">
</g>
<g id="OBJECTS">
	<polygon class="st0" points="199.44,400 400,268.88 203.52,138.39 12.91,254.64 0,258.06 	"/>
	<g>
		<line class="st1" x1="103.72" y1="167.98" x2="97.16" y2="196.31"/>
		<linearGradient id="SVGID_1_" gradientUnits="userSpaceOnUse" x1="121.5559" y1="305.3425" x2="273.6595" y2="305.3425">
			<stop  offset="0" style="stop-color:#FFFFFF"/>
			<stop  offset="1" style="stop-color:#CBDCEB"/>
		</linearGradient>
		<path class="st2" d="M265.73,294.12c10.52,6.2,10.57,16.25,0.12,22.45l-49.05,29.1c-10.45,6.2-27.44,6.2-37.96,0l-49.37-29.1
			c-10.52-6.2-10.57-16.25-0.12-22.45l49.05-29.1c10.45-6.2,27.44-6.2,37.96,0L265.73,294.12z"/>
		<path class="st3" d="M265.73,280.7c10.52,6.2,10.57,16.25,0.12,22.45l-49.05,29.1c-10.45,6.2-27.44,6.2-37.96,0l-49.37-29.1
			c-10.52-6.2-10.57-16.25-0.12-22.45l49.05-29.1c10.45-6.2,27.44-6.2,37.96,0L265.73,280.7z"/>
		<path class="st4" d="M283.23,262.72l-61.53,36.51c-13.11,7.78-34.43,7.78-47.62,0l-61.93-36.51c-6.64-3.91-9.96-9.05-9.94-14.18
			l-0.02,7.27c-0.01,5.13,3.3,10.27,9.94,14.18l61.93,36.51c13.19,7.78,34.51,7.78,47.62,0l61.53-36.51
			c6.51-3.86,9.77-8.92,9.79-13.98l0.02-7.27C293,253.8,289.74,258.85,283.23,262.72z"/>
		<linearGradient id="SVGID_2_" gradientUnits="userSpaceOnUse" x1="179.5089" y1="198.7592" x2="246.2515" y2="382.6891">
			<stop  offset="0" style="stop-color:#FFFFFF"/>
			<stop  offset="1" style="stop-color:#CBDCEB"/>
		</linearGradient>
		<path class="st5" d="M283.07,234.56c13.19,7.78,13.26,20.38,0.16,28.16l-61.53,36.51c-13.11,7.78-34.43,7.78-47.62,0l-61.93-36.51
			c-13.19-7.78-13.26-20.38-0.16-28.16l61.53-36.51c13.11-7.78,34.43-7.78,47.62,0L283.07,234.56z"/>
		<path class="st6" d="M294.77,60.46L226.3,20.1c-2.96-1.75-5.64-1.91-7.58-0.76l-5.67,3.36c1.94-1.15,4.62-0.99,7.58,0.76
			l68.47,40.36c5.87,3.46,10.63,11.87,10.61,18.77l-0.07,24.09c-0.01,3.43-1.2,5.84-3.11,6.97l5.67-3.36
			c1.91-1.13,3.1-3.54,3.11-6.97l0.07-24.09C305.4,72.33,300.64,63.92,294.77,60.46z"/>
		<path class="st7" d="M289.1,63.82c5.87,3.46,10.63,11.87,10.61,18.77l-0.07,24.09c-0.02,6.9-4.81,9.68-10.68,6.22L220.5,72.55
			c-5.88-3.47-10.63-11.87-10.61-18.77l0.07-24.09c0.02-6.9,4.8-9.68,10.68-6.22L289.1,63.82z"/>
		<path class="st8" d="M294.77,124.5L226.3,84.15c-2.96-1.75-5.64-1.91-7.58-0.76l-5.67,3.36c1.94-1.15,4.62-0.99,7.58,0.76
			l68.47,40.36c5.87,3.46,10.63,11.87,10.61,18.77l-0.07,24.09c-0.01,3.43-1.2,5.84-3.11,6.97l5.67-3.36
			c1.91-1.13,3.1-3.54,3.11-6.97l0.07-24.09C305.4,136.37,300.64,127.96,294.77,124.5z"/>
		<path class="st9" d="M289.1,127.86c5.87,3.46,10.63,11.87,10.61,18.77l-0.07,24.09c-0.02,6.9-4.81,9.68-10.68,6.22l-68.47-40.36
			c-5.88-3.47-10.63-11.87-10.61-18.77l0.07-24.09c0.02-6.9,4.8-9.68,10.68-6.22L289.1,127.86z"/>
		<path class="st4" d="M287.08,101.57c-0.04,0.03-0.07,0.06-0.11,0.09C287,101.63,287.04,101.6,287.08,101.57z"/>
		<path class="st4" d="M272.34,98.16c-0.04-0.04-0.09-0.08-0.13-0.12C272.25,98.08,272.29,98.12,272.34,98.16z"/>
		<path class="st4" d="M277.35,101.73c-0.02-0.01-0.04-0.02-0.07-0.03C277.3,101.71,277.32,101.72,277.35,101.73z"/>
		<path class="st4" d="M277.73,101.92c-0.06-0.03-0.13-0.06-0.19-0.09C277.6,101.85,277.67,101.89,277.73,101.92z"/>
		<path class="st4" d="M286.15,102.2c-0.04,0.02-0.08,0.04-0.12,0.06C286.07,102.25,286.11,102.23,286.15,102.2z"/>
		<path class="st4" d="M267.33,92.04c-0.04-0.07-0.09-0.14-0.13-0.21C267.24,91.91,267.28,91.97,267.33,92.04z"/>
		<path class="st4" d="M266.09,89.94c-0.21-0.4-0.42-0.79-0.62-1.2C265.67,89.15,265.88,89.55,266.09,89.94z"/>
		<path class="st4" d="M268.23,93.4c-0.26-0.36-0.51-0.73-0.75-1.11C267.73,92.66,267.98,93.03,268.23,93.4z"/>
		<path class="st4" d="M268.38,93.61c-0.05-0.07-0.09-0.13-0.14-0.2C268.29,93.48,268.34,93.55,268.38,93.61z"/>
		<path class="st4" d="M269.36,94.9c-0.08-0.1-0.15-0.19-0.23-0.29l0,0C269.2,94.71,269.28,94.81,269.36,94.9z"/>
		<path class="st10" d="M276.55,101.3c-0.02-0.01-0.04-0.02-0.07-0.04c-0.07-0.04-0.13-0.08-0.2-0.11
			c-0.06-0.04-0.13-0.08-0.19-0.12c-0.02-0.01-0.04-0.03-0.06-0.04c-0.04-0.03-0.09-0.05-0.13-0.08c-0.03-0.02-0.05-0.03-0.08-0.05
			c-0.04-0.02-0.08-0.05-0.12-0.07c-0.03-0.02-0.05-0.03-0.08-0.05c-0.04-0.02-0.08-0.05-0.11-0.07c-0.03-0.02-0.05-0.03-0.08-0.05
			c-0.04-0.03-0.08-0.05-0.12-0.08c-0.02-0.02-0.05-0.03-0.07-0.05c-0.04-0.03-0.08-0.06-0.12-0.08c-0.02-0.02-0.05-0.03-0.07-0.05
			c-0.05-0.03-0.09-0.07-0.14-0.1c-0.11-0.08-0.18-0.12-0.24-0.17c-0.07-0.05-0.13-0.1-0.19-0.14c-0.02-0.02-0.04-0.03-0.06-0.05
			c-0.04-0.03-0.08-0.06-0.13-0.09c-0.02-0.02-0.05-0.03-0.07-0.05c-0.04-0.03-0.08-0.06-0.12-0.09c-0.02-0.02-0.05-0.04-0.07-0.05
			c-0.04-0.03-0.08-0.06-0.12-0.09c-0.02-0.02-0.05-0.04-0.07-0.05c-0.04-0.03-0.08-0.06-0.12-0.09c-0.02-0.02-0.04-0.04-0.07-0.05
			c-0.04-0.03-0.08-0.07-0.13-0.1c-0.02-0.02-0.04-0.03-0.06-0.05c-0.05-0.04-0.11-0.09-0.16-0.14c-0.08-0.07-0.15-0.12-0.21-0.18
			c-0.08-0.07-0.13-0.11-0.18-0.16c-0.09-0.08-0.14-0.12-0.18-0.16c-0.02-0.02-0.04-0.03-0.06-0.05c-0.04-0.04-0.08-0.07-0.12-0.11
			c-0.02-0.02-0.04-0.04-0.06-0.06c-0.04-0.04-0.08-0.07-0.12-0.11c-0.02-0.02-0.04-0.03-0.06-0.05c-0.04-0.04-0.09-0.08-0.13-0.12
			c-0.1-0.09-0.15-0.14-0.19-0.19c-0.15-0.15-0.27-0.26-0.39-0.38c-0.07-0.07-0.12-0.12-0.17-0.18c-0.08-0.08-0.13-0.13-0.17-0.18
			c-0.09-0.09-0.13-0.14-0.17-0.18c-0.09-0.09-0.13-0.14-0.18-0.19c-0.09-0.09-0.13-0.15-0.18-0.2c-0.2-0.22-0.37-0.41-0.54-0.61
			c-0.06-0.07-0.11-0.13-0.16-0.19c-0.07-0.09-0.12-0.14-0.17-0.2c-0.08-0.09-0.12-0.15-0.17-0.2c-0.08-0.09-0.12-0.15-0.17-0.21
			c-0.08-0.09-0.13-0.16-0.18-0.22c-0.23-0.28-0.44-0.56-0.65-0.85c-0.06-0.08-0.11-0.15-0.16-0.21c-0.06-0.09-0.11-0.15-0.16-0.22
			c-0.07-0.09-0.11-0.16-0.16-0.22c-0.26-0.38-0.51-0.75-0.76-1.12c-0.06-0.09-0.1-0.15-0.14-0.22c-0.06-0.09-0.1-0.16-0.15-0.23
			c-0.29-0.47-0.57-0.93-0.83-1.4c-0.05-0.09-0.09-0.16-0.13-0.23c-0.05-0.09-0.09-0.17-0.13-0.24c-0.22-0.41-0.43-0.81-0.63-1.21
			c2.3-0.44,7-0.55,7.25-0.55c0,0.01,0.08,0.14,0.22,0.36c0.51,0.77,1.83,2.61,3.61,3.66c1.09,0.64,2.36,0.99,3.71,0.61
			c0.07-0.02,0.14-0.04,0.2-0.06c0.22,0.27,4.45,5.36,6.86,8.59c-0.08,0.07-0.16,0.14-0.24,0.21c-0.05,0.04-0.08,0.07-0.12,0.1
			c-0.05,0.04-0.09,0.07-0.12,0.09c-0.06,0.04-0.09,0.07-0.13,0.09c-0.06,0.04-0.1,0.07-0.14,0.1c-0.14,0.09-0.27,0.17-0.41,0.25
			c-0.06,0.03-0.1,0.05-0.13,0.08c-0.06,0.03-0.1,0.05-0.14,0.07c-0.06,0.03-0.11,0.05-0.15,0.07c-0.15,0.07-0.3,0.14-0.45,0.2
			c-0.06,0.02-0.1,0.04-0.14,0.05c-0.07,0.02-0.11,0.04-0.15,0.05c-0.07,0.02-0.11,0.04-0.16,0.05c-0.17,0.05-0.32,0.1-0.48,0.13
			c-0.06,0.01-0.11,0.03-0.15,0.04c-0.07,0.01-0.11,0.02-0.16,0.03c-0.07,0.01-0.12,0.02-0.16,0.03c-0.08,0.01-0.13,0.02-0.18,0.03
			c-0.12,0.02-0.23,0.03-0.34,0.04c-0.06,0.01-0.11,0.01-0.16,0.01c-0.07,0.01-0.12,0.01-0.16,0.01c-0.08,0-0.13,0.01-0.17,0.01
			c-0.08,0-0.13,0-0.18,0.01c-0.14,0-0.25,0-0.37,0c-0.06,0-0.11,0-0.17-0.01c-0.08,0-0.12-0.01-0.17-0.01
			c-0.09-0.01-0.13-0.01-0.17-0.01c-0.09-0.01-0.14-0.01-0.18-0.02c-0.09-0.01-0.15-0.02-0.2-0.02c-0.13-0.02-0.25-0.03-0.37-0.05
			c-0.08-0.01-0.13-0.02-0.18-0.03c-0.02,0-0.03-0.01-0.05-0.01c-0.04-0.01-0.09-0.02-0.13-0.02c-0.02,0-0.04-0.01-0.05-0.01
			c-0.04-0.01-0.09-0.02-0.13-0.03c-0.02,0-0.03-0.01-0.05-0.01c-0.05-0.01-0.1-0.02-0.14-0.03c-0.16-0.04-0.28-0.07-0.41-0.1
			c-0.09-0.02-0.14-0.04-0.18-0.05c-0.02-0.01-0.04-0.01-0.06-0.02c-0.04-0.01-0.09-0.03-0.13-0.04c-0.02-0.01-0.04-0.01-0.06-0.02
			c-0.04-0.01-0.08-0.03-0.12-0.04c-0.02-0.01-0.04-0.01-0.07-0.02c-0.04-0.01-0.09-0.03-0.13-0.04c-0.02-0.01-0.04-0.01-0.06-0.02
			c-0.05-0.02-0.11-0.04-0.16-0.06c-0.09-0.03-0.15-0.05-0.21-0.08c-0.09-0.04-0.14-0.05-0.19-0.07c-0.02-0.01-0.04-0.02-0.06-0.03
			c-0.04-0.02-0.08-0.03-0.13-0.05c-0.02-0.01-0.05-0.02-0.07-0.03c-0.04-0.02-0.08-0.03-0.12-0.05c-0.02-0.01-0.05-0.02-0.07-0.03
			c-0.04-0.02-0.08-0.04-0.12-0.06c-0.02-0.01-0.04-0.02-0.07-0.03c-0.05-0.02-0.1-0.04-0.14-0.07c-0.11-0.05-0.18-0.08-0.24-0.12
			c-0.08-0.04-0.14-0.07-0.19-0.1c-0.02-0.01-0.04-0.02-0.07-0.03c-0.04-0.02-0.09-0.04-0.13-0.07c-0.02-0.01-0.05-0.03-0.07-0.04
			c-0.04-0.02-0.08-0.04-0.12-0.06c-0.03-0.01-0.05-0.03-0.08-0.04c-0.04-0.02-0.08-0.04-0.12-0.07c-0.02-0.01-0.05-0.03-0.07-0.04
			C276.64,101.35,276.6,101.33,276.55,101.3z"/>
		<path class="st4" d="M269.13,94.61L269.13,94.61c-0.14-0.18-0.28-0.36-0.42-0.55l0,0C268.85,94.25,268.99,94.43,269.13,94.61z"/>
		<polygon class="st4" points="268.71,94.06 268.71,94.06 268.71,94.06 		"/>
		<path class="st4" d="M269.84,95.5c-0.05-0.05-0.09-0.11-0.13-0.16C269.75,95.39,269.8,95.45,269.84,95.5z"/>
		<path class="st4" d="M270.2,95.92c-0.05-0.06-0.11-0.12-0.16-0.19C270.09,95.8,270.15,95.86,270.2,95.92z"/>
		<path class="st4" d="M270.72,96.51c-0.17-0.19-0.35-0.38-0.52-0.58C270.37,96.13,270.55,96.32,270.72,96.51z"/>
		<path class="st4" d="M271.23,97.06c-0.04-0.05-0.09-0.09-0.13-0.14C271.15,96.97,271.19,97.02,271.23,97.06z"/>
		<path class="st4" d="M271.61,97.45c-0.05-0.05-0.11-0.11-0.16-0.17C271.5,97.34,271.56,97.4,271.61,97.45z"/>
		<path class="st4" d="M271.98,97.82c-0.12-0.12-0.24-0.24-0.36-0.36C271.74,97.58,271.86,97.7,271.98,97.82z"/>
		<path class="st4" d="M272.7,98.49c-0.04-0.04-0.08-0.07-0.12-0.11C272.62,98.41,272.66,98.45,272.7,98.49z"/>
		<path class="st4" d="M273.49,99.17c-0.05-0.04-0.11-0.09-0.16-0.14C273.38,99.08,273.43,99.13,273.49,99.17z"/>
		<path class="st4" d="M284.99,102.73c-0.04,0.01-0.09,0.03-0.13,0.04C284.9,102.76,284.94,102.74,284.99,102.73z"/>
		<path class="st11" d="M271.93,78.58l0.15,1.85c0.02,0.23,0.05,0.47,0.09,0.71c-0.04-0.01-0.08-0.02-0.13-0.05
			c-0.02-0.01-0.05-0.03-0.08-0.05c-1.09-0.88-1.69-3.87-0.94-3.91c0.12-0.01,0.23,0.03,0.33,0.09c0.1,0.06,0.19,0.14,0.27,0.23
			c0.15,0.7,0.27,1.21,0.28,1.23L271.93,78.58z"/>
		<path class="st4" d="M286.57,101.95c-0.13,0.09-0.26,0.17-0.4,0.25C286.31,102.12,286.44,102.03,286.57,101.95z"/>
		<path class="st11" d="M279.69,91.82c0.17,0.35,0.37,0.69,0.58,1c-1.35,0.38-2.62,0.03-3.71-0.61c-1.78-1.05-3.1-2.89-3.61-3.66
			c0.23-0.06,0.45-0.17,0.63-0.33c0.28-0.62,0.44-1.76,0.52-2.47l1.52,2.22c0.28,0.41,0.61,0.73,0.95,0.93s0.67,0.27,0.95,0.19
			l1.56-0.43c0.03-0.01,0.06-0.02,0.09-0.03C279.24,89.41,279.39,90.82,279.69,91.82z"/>
		<path class="st4" d="M286.82,101.77c-0.03,0.03-0.07,0.05-0.11,0.08C286.75,101.82,286.79,101.79,286.82,101.77z"/>
		<path class="st4" d="M286.95,101.67c-0.03,0.03-0.07,0.05-0.1,0.08C286.88,101.72,286.91,101.7,286.95,101.67z"/>
		<path class="st11" d="M280.13,81.7c0.56,0.33,0.67,0.31,0.68,0.31l0.37,2.79l-0.09,0.93c-0.02,0.19-0.04,0.37-0.08,0.54
			c-0.24,1.21-0.89,2.05-1.84,2.35c-0.03,0.01-0.06,0.02-0.09,0.03l-1.56,0.43c-0.28,0.08-0.62,0-0.95-0.19s-0.67-0.51-0.95-0.93
			l-1.52-2.22l-0.03-0.05c-0.97-1.42-1.64-3.04-1.9-4.56c-0.04-0.24-0.07-0.47-0.09-0.71l-0.15-1.85l1.27-4.09
			c0.01-0.01,0.2-0.28,0.67,0c0.26,0.15,0.59,0.47,1.02,1.09c1.22,1.76,1.35,3.35,3.46,4.91C279.2,81.12,279.76,81.48,280.13,81.7z"
			/>
		<path class="st11" d="M282.28,83.76c0.75,0.92,0.13,3.19-0.96,2.79c-0.03-0.01-0.05-0.02-0.08-0.04
			c-0.09-0.06-0.17-0.13-0.23-0.23c0.03-0.17,0.06-0.35,0.08-0.54l0.09-0.93l0.03,0.24c0.01-0.03,0.27-0.68,0.51-1.67
			c0.07,0.01,0.14,0.03,0.22,0.08C282.05,83.52,282.16,83.62,282.28,83.76z"/>
		<path class="st9" d="M278.25,72.28c2.24,2.04,3.46,4.76,3.79,7.27c0.17,1.31-0.06,2.75-0.32,3.82c-0.24,0.99-0.5,1.64-0.51,1.67
			l-0.03-0.24l-0.37-2.79c-0.01,0-0.12,0.02-0.68-0.31c-0.37-0.22-0.93-0.59-1.76-1.21c-2.11-1.56-2.24-3.15-3.46-4.91
			c-0.43-0.62-0.77-0.94-1.02-1.09c-0.47-0.28-0.66-0.01-0.67,0l-1.27,4.09l-0.03,0.1c-0.01-0.03-0.13-0.54-0.28-1.23
			c-0.16-0.75-0.36-1.68-0.46-2.32c-0.2-1.24,0.35-3.71,1.24-4.55c0.7-0.65,2.52-0.5,4.36,0.59
			C277.26,71.47,277.77,71.84,278.25,72.28z"/>
		<path class="st12" d="M272.95,88.55c-0.15-0.22-0.22-0.35-0.22-0.36c-0.25,0.01-4.95,0.11-7.25,0.55c-1.97-4-3.15-8.32-3.13-12.26
			c0.03-9.07,6.31-12.73,14.04-8.17c7.73,4.56,13.98,15.6,13.95,24.67c-0.01,3.98-1.23,6.92-3.24,8.58
			c0.08-0.07,0.16-0.14,0.24-0.21c-2.41-3.23-6.64-8.32-6.86-8.59c-0.07,0.02-0.14,0.04-0.2,0.06c-0.21-0.31-0.41-0.65-0.58-1
			c-0.29-1-0.45-2.41-0.51-3.19c0.94-0.3,1.59-1.13,1.84-2.35c0.06,0.09,0.14,0.17,0.23,0.23c1.17,0.44,1.78-1.83,1.04-2.75
			c-0.12-0.15-0.23-0.24-0.33-0.31c-0.08-0.05-0.15-0.07-0.22-0.08c0.26-1.08,0.5-2.52,0.32-3.82c-0.33-2.51-1.55-5.23-3.79-7.27
			c-0.48-0.44-0.99-0.81-1.49-1.11c-1.84-1.08-3.66-1.24-4.36-0.59c-0.89,0.84-1.44,3.31-1.24,4.55c0.1,0.64,0.3,1.57,0.46,2.32
			c-0.08-0.09-0.17-0.18-0.27-0.23c-0.1-0.06-0.22-0.1-0.33-0.09c-0.75,0.04-0.15,3.03,0.94,3.91c0.13,0.08,0.17,0.1,0.21,0.1
			c0.25,1.52,0.92,3.14,1.9,4.56c-0.04,0.76-0.2,1.9-0.48,2.52C273.4,88.39,273.17,88.49,272.95,88.55z"/>
		<path class="st4" d="M271.42,97.25c-0.05-0.05-0.09-0.09-0.14-0.14C271.32,97.16,271.37,97.2,271.42,97.25z"/>
		<path class="st4" d="M273.1,98.84c-0.05-0.05-0.11-0.09-0.16-0.14C272.99,98.75,273.04,98.79,273.1,98.84z"/>
		<path class="st4" d="M274.3,99.82c-0.02-0.02-0.05-0.03-0.07-0.05C274.26,99.78,274.28,99.8,274.3,99.82z"/>
		<path class="st4" d="M279.19,102.51c-0.02-0.01-0.04-0.01-0.06-0.02C279.15,102.49,279.17,102.5,279.19,102.51z"/>
		<path class="st4" d="M279.51,102.61c-0.04-0.01-0.08-0.03-0.12-0.04C279.43,102.59,279.47,102.6,279.51,102.61z"/>
		<path class="st4" d="M279.57,102.63c-0.02-0.01-0.04-0.01-0.06-0.02C279.53,102.62,279.55,102.62,279.57,102.63z"/>
		<path class="st4" d="M279.7,102.67c-0.04-0.01-0.09-0.03-0.13-0.04C279.61,102.64,279.66,102.66,279.7,102.67z"/>
		<path class="st4" d="M281.97,103.09c-0.04,0-0.09-0.01-0.13-0.01C281.88,103.08,281.92,103.09,281.97,103.09z"/>
		<path class="st4" d="M282.86,103.11c-0.05,0-0.1,0-0.14,0C282.77,103.11,282.81,103.11,282.86,103.11z"/>
		<path class="st4" d="M283.06,103.1c-0.01,0-0.02,0-0.04,0C283.04,103.1,283.05,103.1,283.06,103.1z"/>
		<path class="st4" d="M283.38,103.07c-0.05,0.01-0.1,0.01-0.16,0.01C283.28,103.08,283.33,103.08,283.38,103.07z"/>
		<path class="st4" d="M285.29,102.62c-0.04,0.02-0.09,0.03-0.13,0.05C285.2,102.65,285.25,102.63,285.29,102.62z"/>
		<path class="st12" d="M278.47,151.91c0.03,0.1,0.06,0.2,0.09,0.31l-0.09,0.03C278.47,152.14,278.47,152.02,278.47,151.91z"/>
		<path class="st11" d="M270.82,136.93c0.09,0.8,0.26,1.51,0.52,2.01c0,0,0.05-0.05,0.12-0.14l0.11,1.35
			c0.02,0.23,0.05,0.47,0.09,0.71c-0.05-0.01-0.1-0.03-0.16-0.06c-0.01-0.01-0.02-0.01-0.03-0.02c-0.01-0.01-0.02-0.01-0.03-0.02
			c-0.75-0.61-1.27-2.21-1.27-3.17c0-0.43,0.1-0.73,0.33-0.75C270.62,136.84,270.72,136.87,270.82,136.93z"/>
		<path class="st11" d="M277.96,148.54c0.02,0.66,0.12,2.05,0.5,3.37c0,0.11,0,0.22,0.01,0.34c-0.84,0.29-1.62,0.13-2.3-0.23
			c-0.05-0.02-0.09-0.05-0.13-0.08c-0.02-0.01-0.05-0.03-0.07-0.04c-1.31-0.81-2.19-2.33-2.32-2.57c-0.01-0.02-0.02-0.03-0.02-0.03
			c0.43-0.84,0.56-2.2,0.6-2.89l0.88,1.28c0.28,0.41,0.61,0.73,0.95,0.93c0.33,0.2,0.67,0.27,0.95,0.19L277.96,148.54z"/>
		<path class="st10" d="M283.76,158.17c-0.41-0.54-0.95-1.19-1.52-1.86c-0.06,0.46-0.17,0.92-0.36,1.37
			c-1.12,2.61-3.15,2.45-3.26,2.44c0.02-0.08,0.44-1.59,0.44-3.19c0-0.49-0.04-0.98-0.15-1.43c-0.11-0.44-0.19-0.9-0.27-1.38
			c-0.1-0.62-0.15-1.26-0.17-1.87c-0.84,0.29-1.62,0.13-2.3-0.23c-0.05-0.02-0.09-0.05-0.13-0.08c-0.02-0.01-0.05-0.03-0.07-0.04
			c-1.31-0.81-2.19-2.33-2.32-2.57c-0.01-0.02-0.02-0.03-0.03-0.03c-0.11-0.01-3.6-0.37-5.19-0.16c-0.55,0.07-1.06,1.08-1.49,2.38
			c2.47,4.08,5.75,7.61,9.35,9.73c3.44,2.03,6.59,2.42,9.03,1.45C284.88,160.74,284.35,158.95,283.76,158.17z"/>
		<path class="st9" d="M280.5,149.46c-0.35-0.82-0.54-1.48-0.64-1.98c-0.31,0.4-0.7,0.69-1.17,0.85c-0.04,0.01-0.09,0.04-0.13,0.05
			l-0.6,0.16c0.02,0.66,0.12,2.05,0.5,3.37c0.03,0.1,0.06,0.2,0.09,0.31l-0.09,0.03c0.01,0.61,0.07,1.24,0.17,1.87
			c0.07,0.47,0.16,0.94,0.27,1.38c0.11,0.45,0.15,0.94,0.15,1.43c0,1.6-0.42,3.11-0.44,3.19c0.11,0.01,2.14,0.17,3.26-2.44
			c0.19-0.44,0.31-0.9,0.36-1.37c0.03-0.25,0.05-0.5,0.05-0.75C282.28,153.53,281.32,151.39,280.5,149.46z"/>
		<path class="st11" d="M280.3,145.12l-0.61-2.78c-5.29-3.34-6.95-7.83-7.03-8.07c0.02,0.25,0.03,0.49,0.03,0.72
			c-0.01,1.62-0.56,2.78-0.95,3.41c-0.11,0.18-0.2,0.31-0.28,0.4l0.11,1.35c0.02,0.23,0.05,0.47,0.09,0.7
			c0.25,1.52,0.92,3.15,1.89,4.57l0.68,0.98c0.01-0.24,0.01-0.24,0,0l0.88,1.28c0.28,0.41,0.61,0.73,0.95,0.93
			c0.33,0.2,0.67,0.27,0.95,0.19l0.96-0.27l0.6-0.16c0.04-0.01,0.09-0.04,0.13-0.05c0.46-0.16,0.86-0.45,1.17-0.85
			c0.3-0.39,0.51-0.89,0.63-1.49C280.35,145.77,280.3,145.45,280.3,145.12z"/>
		<polygon class="st12" points="280.49,145.99 280.49,146 280.49,146.01 		"/>
		<polygon class="st12" points="280.49,146 280.53,146.05 280.51,146.09 280.49,146.01 		"/>
		<path class="st13" d="M280.3,145.12l0.19,0.87C280.35,145.77,280.3,145.45,280.3,145.12z"/>
		<path class="st11" d="M281.44,143.19c0.1,0.06,0.21,0.15,0.33,0.3c0.23,0.29,0.33,0.71,0.33,1.13c-0.01,0.94-0.54,1.93-1.29,1.66
			c-0.02-0.01-0.05-0.02-0.07-0.04c-0.02-0.01-0.04-0.03-0.06-0.04c-0.06-0.04-0.11-0.09-0.15-0.15c0.08-0.23,0.48-1.46,0.79-2.92
			c0.02,0.01,0.04,0.02,0.06,0.02C281.4,143.17,281.42,143.18,281.44,143.19z"/>
		<path class="st12" d="M276.38,128.41c7.73,4.56,13.98,15.6,13.95,24.67c-0.01,5.03-1.96,8.4-5.01,9.62
			c-0.44-1.96-0.98-3.76-1.57-4.53c-0.41-0.54-0.95-1.19-1.52-1.86c0.03-0.25,0.05-0.5,0.05-0.75c0-2.04-0.96-4.17-1.78-6.1
			c-0.35-0.82-0.54-1.48-0.64-1.98c0.3-0.39,0.51-0.89,0.63-1.47c0.07,0.1,0.12,0.15,0.18,0.19c0.87,0.35,1.4-0.64,1.42-1.58
			c0.01-0.43-0.09-0.85-0.33-1.13c-0.12-0.14-0.22-0.24-0.33-0.3c0.08-1,0.24-2.04,0.24-2.98c0-0.26-0.01-0.51-0.04-0.75
			c-0.27-2.56-1.93-5.72-5.09-8.12c-0.06-0.04-0.12-0.09-0.17-0.13c-0.23-0.17-0.46-0.32-0.68-0.45c-2.51-1.45-4.12-0.56-4.62,1.13
			c-0.04,0.14-0.07,0.28-0.1,0.42c-0.15,0.88-0.24,1.89-0.25,2.89c0,0.6,0.02,1.19,0.08,1.73c-0.1-0.06-0.2-0.09-0.32-0.09
			c-0.23,0.01-0.34,0.31-0.33,0.75c0.01,0.95,0.53,2.56,1.27,3.17c0.12,0.07,0.17,0.09,0.21,0.1c0.25,1.52,0.92,3.15,1.89,4.57
			l0.68,0.98c-0.04,0.69-0.17,2.05-0.61,2.89c-0.11-0.01-3.6-0.37-5.19-0.16c-0.55,0.07-1.06,1.08-1.49,2.38
			c-2.84-4.68-4.62-10.09-4.6-14.94C262.36,127.51,268.65,123.85,276.38,128.41z"/>
		<path class="st9" d="M281.64,139.46c-0.27-2.56-1.93-5.72-5.09-8.12c-0.06-0.04-0.12-0.09-0.17-0.13
			c-0.23-0.17-0.46-0.32-0.71-0.47c-0.02-0.01-0.04-0.02-0.06-0.04c-2.42-1.39-4.03-0.5-4.53,1.18c-0.04,0.14-0.07,0.28-0.1,0.42
			c-0.15,0.88-0.24,1.89-0.25,2.89c0,0.6,0.02,1.19,0.1,1.75c-0.01,0-0.01-0.01-0.02-0.01c0.09,0.8,0.26,1.51,0.52,2.01
			c0,0,0.05-0.05,0.12-0.14c0.07-0.09,0.17-0.22,0.28-0.4c0.39-0.63,0.94-1.78,0.95-3.41c0-0.23-0.01-0.47-0.03-0.72
			c0.09,0.24,1.75,4.73,7.03,8.07l0.61,2.78l0.19,0.88l0.03,0.05c0.08-0.23,0.48-1.46,0.79-2.92c0.2-0.95,0.36-1.99,0.36-2.92
			C281.68,139.95,281.67,139.7,281.64,139.46z"/>
		<path class="st14" d="M256.83,67c0.53,0.31,0.95,1.07,0.95,1.68c0,0.61-0.42,0.87-0.96,0.56l-38.99-22.98
			c-0.52-0.31-0.94-1.06-0.94-1.68c0-0.61,0.42-0.87,0.95-0.56L256.83,67z"/>
		<path class="st14" d="M245.59,66.09c0.52,0.31,0.94,1.05,0.94,1.67c0,0.61-0.42,0.87-0.95,0.56l-27.77-16.37
			c-0.52-0.31-0.94-1.06-0.94-1.68c0-0.61,0.42-0.86,0.95-0.55L245.59,66.09z"/>
		<path class="st15" d="M256.83,131.04c0.53,0.31,0.95,1.07,0.95,1.68c0,0.61-0.42,0.87-0.96,0.56l-38.99-22.98
			c-0.52-0.31-0.94-1.06-0.94-1.68c0-0.61,0.42-0.87,0.95-0.56L256.83,131.04z"/>
		<path class="st15" d="M245.59,130.13c0.52,0.31,0.94,1.05,0.94,1.67c0,0.61-0.42,0.87-0.95,0.56l-27.77-16.37
			c-0.52-0.31-0.94-1.06-0.94-1.68c0-0.61,0.42-0.86,0.95-0.55L245.59,130.13z"/>
		<path class="st16" d="M245.48,143.03c1.65-0.98,3.94-0.84,6.46,0.65c5.01,2.95,9.06,10.11,9.04,15.99
			c-0.01,2.92-1.02,4.98-2.65,5.95l-1.99,1.18c1.63-0.97,2.64-3.02,2.65-5.95c0.02-5.88-4.03-13.04-9.04-15.99
			c-2.52-1.49-4.81-1.63-6.46-0.65L245.48,143.03z"/>
		<path class="st17" d="M249.95,144.86c5.01,2.95,9.06,10.11,9.04,15.99c-0.02,5.88-4.09,8.25-9.1,5.3
			c-5.01-2.95-9.06-10.12-9.05-16C240.86,144.27,244.94,141.91,249.95,144.86z"/>
		<polygon class="st18" points="253.21,152.59 255.15,156.03 247.71,160.36 244.09,153.97 246.05,152.83 247.72,155.78 		"/>
		<path class="st19" d="M245.48,172.59c1.65-0.98,3.94-0.84,6.46,0.65c5.01,2.95,9.06,10.11,9.04,15.99
			c-0.01,2.92-1.02,4.98-2.65,5.95l-1.99,1.18c1.63-0.97,2.64-3.02,2.65-5.95c0.02-5.88-4.03-13.04-9.04-15.99
			c-2.52-1.49-4.81-1.63-6.46-0.65L245.48,172.59z"/>
		<path class="st20" d="M249.95,174.42c5.01,2.95,9.06,10.11,9.04,15.99c-0.02,5.88-4.09,8.25-9.1,5.3
			c-5.01-2.95-9.06-10.12-9.05-16C240.86,173.83,244.94,171.46,249.95,174.42z"/>
		<polygon class="st18" points="252.5,181.85 254.44,185.29 251.61,186.95 254.42,191.91 252.47,193.06 249.65,188.08 
			246.82,189.73 244.87,186.29 247.7,184.64 244.89,179.66 246.85,178.52 249.66,183.5 		"/>
		<path class="st21" d="M205.49,111.22c-0.88-3.16-3.89-5.9-8.39-5.68c-4.33,0.22-7.51,2.16-8.56,5.45
			c-0.63,1.95-0.49,5.37,0.67,7.83c0.57,1.21,1.66,2.32,2.95,3.24l-1.25,4.55c1.12,1.38,5.82,3.06,9.12,2.88
			c0.01,0,0.4-1.59,0.82-3.28c2.2,0.63,3.82-1.21,4.61-3.72C206,120.75,206.18,113.68,205.49,111.22z"/>
		<path class="st22" d="M205.49,111.22c-0.88-3.16-3.89-5.9-8.39-5.68c-0.08,0-0.15,0.02-0.22,0.02l-8.55,6.27
			c-0.37,1.99-0.13,4.85,0.87,7c0.57,1.21,1.66,2.32,2.95,3.24l-1.25,4.55c1.12,1.38,5.82,3.06,9.12,2.88c0.01,0,0.4-1.59,0.82-3.28
			c0.8,0.23,1.51,0.12,2.14-0.21c-0.64-0.27-1.15-0.94-1.65-1.89c-0.8-1.51,1.88-2.46,2.01-3.97c0.13-1.51-0.8-4.11,0.94-5.34
			c0.9-0.63,1.26-1.73,1.4-2.65C205.63,111.8,205.57,111.48,205.49,111.22z"/>
		<ellipse class="st11" cx="198.23" cy="247.41" rx="36.88" ry="23.92"/>
		<path class="st21" d="M215.05,124.77l1.59-1.24l2.05-4.38c0,0,1.12-0.48,1.4-0.57c0.28-0.1,2.43,0.38,2.43,0.38
			s1.03-1.24,1.31-1.43c0.28-0.19,1.4-1.43,1.87-1.14c0.47,0.29,0.37,0.76,0.09,1.14c-0.28,0.38-1.21,1.33-1.21,1.33l-1.03,2.57
			l0.09,0.95c0,0,0.56,0,0.75,0.57c0.19,0.57,0.19,1.14-0.47,1.33c-0.65,0.19-1.21,0.48-1.21,0.48s-1.31,0.95-2.05,1.24
			c-0.75,0.29-1.59,0.48-1.59,0.48l-0.47,1.14L215.05,124.77z"/>
		<path class="st22" d="M224.38,122.96c-0.01-0.02-0.02-0.03-0.03-0.05c-0.39,0.01-0.84,0.05-1.11,0.16
			c-0.52,0.23-1.27,1.3-1.57,1.53c-0.3,0.23-2.1,1.07-2.92,0.31c-0.61-0.56-1.93-0.87-2.6-1l-1.11,0.86l3.55,2.86l0.47-1.14
			c0,0,0.84-0.19,1.59-0.48c0.75-0.29,2.05-1.24,2.05-1.24s0.56-0.29,1.21-0.48C224.56,124.1,224.56,123.53,224.38,122.96z"/>
		<path class="st23" d="M213.29,125.5l1.99-1.66c0,0,3.34,0.74,3.7,3.59l-1.62,1.75L213.29,125.5z"/>
		<path class="st24" d="M202.54,134.51l10.83-10.23c0,0,4.87,0.28,5.41,4.42l-10.83,12.71
			C207.95,141.42,202.54,140.32,202.54,134.51z"/>
		<path class="st25" d="M207.95,141.42l10.83-12.71c-0.15-1.14-0.63-1.98-1.24-2.61c-3.64,5.25-10.3,11.01-10.3,11.01l-0.91,3.7
			C207.23,141.27,207.95,141.42,207.95,141.42z"/>
		<path class="st26" d="M182.08,242.62l-0.33,4.62c-0.05,0.74,0.35,1.43,1.02,1.72c0.62,0.27,1.51,0.46,2.7,0.28
			c2.59-0.41,3.79-1.83,4.19-2.65c0.4-0.81,5.59-4.48,4.99-6.32c-1-1.83-2.79,0-4.59,0C188.27,240.28,184.47,239.36,182.08,242.62z"
			/>
		<path class="st26" d="M183.28,171.82c0,0-1.2,31.17-0.6,40.95c0,0-2.39,24.45-1.2,30.26c0,0,4.19,3.06,7.78,0.61
			c0.9-0.31,0.9-1.53,0.9-1.53s2.39-22.92,2.99-29.95c0.6-7.03,5.39-28.12,4.49-32.7C196.75,174.87,191.06,168.46,183.28,171.82z"/>
		<path class="st26" d="M202.59,249.14c0,0-1.65,5.2-0.45,6.42s2.69,1.53,3.79,1.17c1.1-0.36,2.15-0.87,2.15-0.87l0.35-1.07
			l0.4,0.71c0,0,0.6-0.1,1.4-0.56c0.8-0.46,3.09-1.38,4.04-1.99c0.95-0.61,2.64-1.68,2.79-3.01c0.1-1.32-4.54-0.87-5.79-0.82
			s-2.05-0.46-2.49-0.46c-0.45,0-5.29,0.61-5.29,0.61"/>
		<path class="st27" d="M210.16,171.24c0,0,1.25,4.65,1.25,14.03c0,9.37-0.8,33.01-0.8,33.01s-0.4,24.04-0.8,30.16
			c0,0-2.79,3.67-7.58,0.81c-2.39-2.85-1.6-4.89-1.6-4.89s-3.19-14.67-2-28.12c0,0-4.39-27.3-5.19-30.56
			c-0.8-3.26-14.72-4.67-9.28-20.58L210.16,171.24z"/>
		<path class="st12" d="M202.54,185.69c0,0,6.43,2.87,5.63,12.32c-0.8,9.44-2.41,15.6-1.61,21.35c0.8,5.75,2.01,9.03,1.21,16.01
			c-0.65,5.68-2.9,11.08-1.12,14.89c2.05-0.35,3.18-1.82,3.18-1.82c0.4-6.11,0.8-30.16,0.8-30.16s0.8-23.64,0.8-33.01
			c0-4.04-0.23-7.19-0.5-9.48l-9.99,4.57L202.54,185.69z"/>
		<path class="st12" d="M212.95,141.21c0.09-2.03-0.87-3.96-2.52-5.08c-3.66-2.49-8.63-5.64-11.84-7.38
			c-4-2.15-8.14-4.42-10.35-4.63c-6.17-0.59-9.87,5.27-9.29,12.96c0.35,4.67,1.57,9.88,3.24,15.23c0.71,2.28,1.19,6.32,1.37,10.03
			c-0.03,1.79-0.19,3.82-0.67,5c-1,2.45-2,12.23-2,12.23s6.79,7.13,15.57,7.74c8.78,0.61,12.17-1.22,12.17-1.22l0.6-4.07l1.2,3.67
			c0,0,1.6-0.61,1.8-2.24c0.18-1.47-1.43-14.04-1.74-16.49c0.51-5.08,1.51-12.55,1.82-15.95
			C212.58,147.86,212.82,144.28,212.95,141.21z"/>
		<path class="st23" d="M191.06,124.17c0,0,2.89,2.55,9.78,3.57l1.03,2.54c0,0-2.63,0.72-6.02,0.32c-3.39-0.41-6.19-3.16-6.49-3.77
			c-0.3-0.61-0.3-0.61-0.3-0.61L191.06,124.17z"/>
		<path class="st12" d="M187.06,110.97c0,0,0-4.72,5.03-6.16c5.03-1.44,5.63-0.82,7.04-1.85c1.41-1.03,3.22-1.23,5.83-0.41
			c2.61,0.82,3.02,3.49,2.21,5.95c-0.8,2.46-1.21,3.9-3.22,4.93c-2.01,1.03-1.61,3.49-1.61,3.49s0.4,2.67-1.01,3.69l-1.21-3.08
			c0,0-1.01,3.49-2.01,4.72c-1.01,1.23-3.22,1.85-5.43,1.85c-2.21,0-5.03-5.54-5.83-7.39c-0.8-1.85,0.8-3.49,0.8-3.49
			S186.66,112.41,187.06,110.97z"/>
		<path class="st25" d="M204.95,141.35c-2.01-4.93-9.25-3.69-18.9-7.39c-4.64-1.78-5.28-4.5-4.69-6.86
			c-1.82,2.36-2.73,5.9-2.42,9.97c0.35,4.67,1.57,9.88,3.24,15.23c0.71,2.28,1.19,6.32,1.37,10.03c-0.03,1.79-0.19,3.82-0.67,5
			c-1,2.45-2,12.23-2,12.23s6.79,7.13,15.57,7.74c4.9,0.34,8.12-0.08,10.01-0.52c1.39-10.28-4.81-15.32-6.33-19.98
			C198.52,161.88,206.96,146.28,204.95,141.35z"/>
		<path class="st25" d="M203.21,104.41c-0.92-1.72-2.7-1.74-4.07-1.45c0,0-0.01,0.01-0.02,0.01c-1.41,1.03-2.01,0.41-7.04,1.85
			c-5.03,1.44-5.03,6.16-5.03,6.16c-0.4,1.44,0.6,2.26,0.6,2.26s-1.61,1.64-0.8,3.49c0.54,1.25,2.01,4.19,3.59,5.96
			c3.11-0.55,4.47-3.17,3.92-4.87c-0.8-2.46,1.88-0.27,2.69-1.88c0.82-1.61-2.69-2.77,0.79-6.05
			C201.33,106.6,204.82,107.42,203.21,104.41z"/>
		<path class="st21" d="M242.09,158.81l1.69-0.38c0,0,2.82-2.29,3.22-2.41c0.4-0.12,3.81-2.74,4.13-2.14
			c0.33,0.6-0.05,1.13-0.54,1.46c-0.49,0.33-1.48,0.79-1.48,0.79l-0.85,1.27c0,0,0.54,0.9,0.56,1.41c0.02,0.51-0.05,1.24-0.05,1.24
			s0.34,0.91-0.13,1.75c-0.47,0.84-1.55,1.41-2.26,1.33c-0.71-0.07-2.32-0.2-2.32-0.2l-1.1,0.15L242.09,158.81z"/>
		<path class="st22" d="M248.66,161.8c0.27-0.48,0.27-0.97,0.22-1.31c-0.42,0.47-1.01,1.03-1.47,1.09c-0.8,0.1-1.81,0.82-2.51-0.31
			c-0.7-1.13-2.11-2.05-2.11-2.05l-0.64-0.11l0.83,3.98l1.1-0.15c0,0,1.62,0.13,2.32,0.2C247.11,163.2,248.19,162.64,248.66,161.8z"
			/>
		<path class="st11" d="M240.35,158.52l2.08-0.37c0,0,1.53,0.94,1.69,3.1c0.03,1.96-0.69,2.67-0.69,2.67l-1.7,0.21L240.35,158.52z"
			/>
		<path class="st12" d="M210.21,136.33c0,0,2.17,0.4,3.83,4.21c1.66,3.81,7.19,16.87,8.55,17.95c1.35,1.08,17.79-0.84,17.79-0.84
			s3.25,2.15,2.48,4.89c-0.77,2.47-1.85,2.21-1.85,2.21s-16.14,3.83-19.35,4.15c-3.21,0.32-4.57-1.03-5.38-1.57
			c-0.81-0.54-7.42-13.58-8.79-15.75c-1.37-2.17-4.95-9.79-2.31-12.56C207.82,136.25,210.21,136.33,210.21,136.33z"/>
		<path class="st25" d="M241.01,164.75c0,0,1.08,0.26,1.85-2.21c0.16-0.57,0.14-1.12,0.02-1.63c-1.87,0.59-4.51,1.37-7.25,2
			c-5.08,1.16-11.6,2.4-16.18,0.82c-4.58-1.58-9.29-13.01-10.98-19.28c-0.86-3.2-0.6-5.84-0.14-7.67c-0.88,0.36-1.99,1.01-3.15,2.24
			c-2.64,2.77,0.94,10.39,2.31,12.56c1.37,2.17,7.97,15.22,8.79,15.75c0.81,0.54,2.17,1.89,5.38,1.57
			C224.87,168.58,241.01,164.75,241.01,164.75z"/>
		<polygon class="st11" points="89.09,94.5 89.42,212.07 155.03,173.4 154.7,55.83 		"/>
		<polygon class="st28" points="97.67,99.43 95.4,98.08 95.73,215.65 98,217 		"/>
		<polygon class="st18" points="163.28,60.75 161.02,59.41 95.4,98.08 97.67,99.43 		"/>
		<polygon class="st7" points="97.67,99.43 98,217 163.61,178.32 163.28,60.75 		"/>
		<polygon class="st4" points="149.32,85.96 149.33,87.65 111.13,110.17 111.13,108.47 		"/>
		<polygon class="st4" points="132.8,102.45 132.8,104.14 111.15,116.9 111.15,115.21 		"/>
		<polygon class="st4" points="146.27,127.54 146.28,129.22 111.24,149.87 111.24,148.19 		"/>
		<polygon class="st4" points="132.87,127.98 132.87,129.66 111.22,142.42 111.22,140.74 		"/>
		<polygon class="st4" points="138.63,117.83 138.63,119.52 111.2,135.68 111.2,134 		"/>
		<polygon class="st4" points="121.11,116.81 121.11,118.5 111.17,124.36 111.17,122.67 		"/>
		<path class="st29" d="M121.72,154.92c6.09-3.59,11.86-2.67,14.24,2.98c2.98,7.07-0.41,18.99-7.59,27.23l-1.67-3.96
			c4.86-5.79,7.13-13.98,5.06-18.87c-1.68-3.99-5.74-4.63-10.04-2.1c-1.05,0.62-2.11,1.42-3.15,2.41l-1.66-3.96
			C118.5,157.12,120.12,155.87,121.72,154.92z"/>
		<path class="st8" d="M116.92,158.67l1.66,3.95c-0.26,0.25-0.52,0.51-0.78,0.79c-5.53,5.81-8.23,14.74-6.03,19.95
			c0.08,0.19,0.17,0.37,0.26,0.54c0.03,0.06,0.07,0.12,0.1,0.19c1.6,2.87,4.66,3.57,8.06,2.18c0.53-0.21,1.07-0.48,1.61-0.81
			c0.15-0.09,0.29-0.17,0.44-0.27c0.27-0.17,0.47-0.31,0.67-0.45l0.09-0.07c0.44-0.31,0.87-0.66,1.31-1.04
			c0.05-0.05,0.11-0.1,0.16-0.15c0.16-0.14,0.32-0.29,0.48-0.44c0.06-0.06,0.12-0.11,0.18-0.17c0.21-0.2,0.42-0.41,0.62-0.63
			c0.33-0.35,0.66-0.71,0.97-1.08l1.67,3.96c-0.32,0.36-0.64,0.72-0.97,1.07c-0.3,0.31-0.59,0.61-0.89,0.9
			c-0.08,0.08-0.17,0.16-0.25,0.24c-0.23,0.22-0.46,0.43-0.69,0.63c-0.08,0.07-0.15,0.14-0.23,0.21c-0.62,0.54-1.24,1.03-1.86,1.47
			c-0.05,0.04-0.1,0.07-0.15,0.1c-0.28,0.2-0.57,0.39-0.84,0.57l-0.1,0.06c-0.19,0.12-0.38,0.24-0.58,0.35
			c-0.46,0.27-0.91,0.51-1.36,0.73c-0.34,0.17-0.66,0.31-0.98,0.44c-5.18,2.1-9.82,0.77-11.89-4.15
			c-3.11-7.39,0.72-20.06,8.56-28.31C116.39,159.19,116.66,158.93,116.92,158.67z"/>
		<path class="st8" d="M152.79,159.71l0,0.85c0,0.5,0.53,0.82,0.96,0.57l3.95-2.32c0.2-0.12,0.32-0.33,0.32-0.57l0-0.85
			c0-0.5-0.53-0.82-0.96-0.57l-3.95,2.32C152.91,159.26,152.79,159.48,152.79,159.71z"/>
		<path class="st8" d="M140.28,171.27l0,0.86c0,0.5,0.53,0.82,0.96,0.57l16.46-9.63c0.2-0.12,0.32-0.33,0.32-0.57l0-0.86
			c0-0.5-0.53-0.82-0.96-0.57l-16.46,9.63C140.4,170.82,140.28,171.04,140.28,171.27z"/>
		<path class="st8" d="M147.06,175.8l0,0.86c0,0.5,0.53,0.82,0.96,0.57l9.67-5.66c0.2-0.12,0.32-0.33,0.32-0.57v-0.86
			c0-0.5-0.53-0.82-0.96-0.57l-9.67,5.66C147.19,175.35,147.06,175.56,147.06,175.8z"/>
		<path class="st8" d="M142.83,174.03l0,0.86c0,0.5,0.53,0.82,0.96,0.57l13.91-8.14c0.2-0.12,0.32-0.33,0.32-0.57l0-0.86
			c0-0.5-0.53-0.82-0.96-0.57l-13.91,8.14C142.95,173.58,142.83,173.79,142.83,174.03z"/>
	</g>
</g>
</svg>
