<svg width="84" height="82" viewBox="0 0 84 82" fill="none" xmlns="http://www.w3.org/2000/svg">
<path d="M45.3375 24.7499C45.3203 25.9419 46.0172 27.0173 47.083 27.4442C51.8971 29.3728 55.6819 33.4405 57.3893 38.5202C57.7673 39.6445 58.7774 40.4024 59.9191 40.4188L80.0387 40.7092C80.845 40.7208 81.6149 40.359 82.1416 39.7209C82.6683 39.0829 82.897 38.2346 82.7676 37.4039C79.9202 19.0948 66.331 4.4912 48.884 0.990523C48.093 0.831839 47.275 1.04722 46.6495 1.57818C46.024 2.10914 45.6528 2.90209 45.6406 3.74333L45.3375 24.7499Z" fill="#F44336"/>
<path fill-rule="evenodd" clip-rule="evenodd" d="M58.8436 77.9086C70.6293 72.323 79.3276 61.2848 81.681 48.0518C81.8169 47.2874 81.6072 46.5024 81.1089 45.9071C80.6106 45.3118 79.8739 44.9652 79.0974 44.9652H59.7078V44.9649C58.6076 44.9649 57.6242 45.6513 57.2447 46.6841C54.8572 53.177 48.6196 57.8088 41.2984 57.8088C31.9164 57.8088 24.311 50.2033 24.311 40.8214C24.311 38.7267 24.6913 36.7216 25.3852 34.8692C25.497 34.5709 25.5516 34.2608 25.552 33.9532C26.7481 31.313 28.6364 28.9441 31.1675 27.1416C32.8737 25.9265 34.7276 25.0732 36.6391 24.5638C37.6333 24.299 38.3816 23.4764 38.5522 22.4617L41.8137 3.06197C41.9452 2.27992 41.7157 1.48057 41.1901 0.886733C40.6644 0.292894 39.8979 -0.0334442 39.1057 0.00271742C31.4955 0.350807 23.8943 2.81912 17.2273 7.56699C-1.22537 20.7082 -5.53128 46.3204 7.60989 64.7731C19.32 81.2163 40.9323 86.4255 58.5576 78.0668C58.6567 78.0198 58.7522 77.9669 58.8436 77.9086Z" fill="#00326F"/>
</svg>
