<?xml version="1.0" encoding="utf-8"?>
<!-- Generator: Adobe Illustrator 25.1.0, SVG Export Plug-In . SVG Version: 6.00 Build 0)  -->
<svg version="1.1" xmlns="http://www.w3.org/2000/svg" xmlns:xlink="http://www.w3.org/1999/xlink" x="0px" y="0px"
	 viewBox="0 0 400 400" style="enable-background:new 0 0 400 400;" xml:space="preserve">
<style type="text/css">
	.st0{fill:#F9F9F9;}
	.st1{fill:none;stroke:#FFFFFF;stroke-width:1.2258;stroke-miterlimit:10;}
	.st2{fill:url(#SVGID_1_);}
	.st3{fill:none;stroke:#94C3FF;stroke-width:0.9256;stroke-miterlimit:10;}
	.st4{fill:#A6D0F4;}
	.st5{fill:url(#SVGID_2_);}
	.st6{fill:#C7D8F2;}
	.st7{fill:#EAF1F7;}
	.st8{fill:#94C3FF;}
	.st9{fill:#8182EE;}
	.st10{fill:#4B5CC0;}
	.st11{fill:#CBDCEB;}
	.st12{fill:#25437F;}
	.st13{fill:#FF8D68;}
	.st14{fill:#79AEF5;}
	.st15{fill:#254DA1;}
	.st16{fill:#86E563;}
	.st17{fill:#2AB774;}
	.st18{fill:#FFFFFF;}
	.st19{fill:#FF7363;}
	.st20{fill:#FF465C;}
	.st21{fill:#FF8E54;}
	.st22{fill:#FF5F4D;}
	.st23{fill:#F9FBFC;}
	.st24{fill:#253C72;}
	.st25{fill:#252F4C;}
	.st26{fill:#171E26;}
	.st27{fill:#1F2F3F;}
	.st28{fill:#BDC5CB;}
	.st29{fill:#4385FF;}
	.st30{fill:#00609B;}
	.st31{fill:#0099CE;}
	.st32{fill:#0050AF;}
	.st33{opacity:0.4;fill:#0050AF;}
	.st34{fill:#E9F3FE;}
	.st35{fill:#AFCDFB;}
	.st36{fill:#C0D8F9;}
	.st37{fill:#D4E3F4;}
	.st38{fill:#699DEE;}
	.st39{clip-path:url(#SVGID_4_);}
	.st40{fill:#E49963;}
	.st41{fill:#A8D2A0;}
	.st42{fill:#163560;}
	.st43{fill:#D68D5D;}
	.st44{fill:#82B479;}
	.st45{fill:#2B478B;}
	.st46{opacity:0.4;fill:#FFFFFF;}
	.st47{fill:#CCE2FF;}
	.st48{fill:#2E5B9A;}
	.st49{fill:#F09959;}
	.st50{fill:#6791C9;}
	.st51{fill:#75A1DE;}
	.st52{fill:#F37168;}
	.st53{fill:#D54A41;}
	.st54{fill:#E38540;}
	.st55{fill:#F2E5DE;}
	.st56{fill:#303C60;}
	.st57{fill:#9EC8FF;}
	.st58{opacity:0.8;}
	.st59{fill:#2E6300;}
	.st60{fill:#99BBEB;}
	.st61{fill:#9BD6E8;}
	.st62{fill:#3A384D;}
	.st63{fill:#7A4E34;}
	.st64{opacity:0.2;fill:#99BBEB;}
	.st65{fill:#2E2D3D;}
	.st66{fill:#D5E1E8;}
	.st67{fill:#BDCCD4;}
	.st68{fill:#F44336;}
</style>
<g id="BACKGROUND">
</g>
<g id="OBJECTS">
	<polygon class="st0" points="202.25,400 402.82,268.88 206.33,138.39 15.73,254.64 2.82,258.06 	"/>
	<g>
		<g>
			<path class="st47" d="M354.88,274.8c-23.07-1.89-101.55,1.31-125.42,2.56c-23.87,1.25-51.57-1.65-65.97-5.9
				c-14.39-4.25-97.58,0.36-93.81,11.8c3.78,11.44,37.06,5.12,74.81,9.71c37.75,4.6,122.65-0.57,141.8,0
				c19.15,0.57,36.71-1.15,61.39-3.45C372.38,287.23,368.25,275.9,354.88,274.8z"/>
			<path class="st48" d="M246.25,186.4H119.3c-1.12,0-2.02-0.91-2.02-2.02v-1.34c0-1.12,0.91-2.02,2.02-2.02h126.95
				c1.12,0,2.02,0.91,2.02,2.02v1.34C248.27,185.5,247.37,186.4,246.25,186.4z"/>
			<g>
				<path class="st49" d="M279.89,108.81c1.74,6.76-2.51,13.72-7.18,15.19c-4.67,1.46-8.01-3.13-9.75-9.89
					c-1.74-6.76,0.64-13.43,5.32-14.89C272.96,97.76,278.15,102.05,279.89,108.81z"/>
				<path class="st49" d="M253.69,239.79c0,0,11.98,20.53,13.6,21.43c1.62,0.89,5.66,1.12,4.15,4.46
					c-1.52,3.35-2.12,16.52-3.54,17.19c-1.42,0.67-13.55,2.23-11.73,0c1.82-2.23,2.94-1.12,3.86-5.13
					c0.92-4.02,2.21-11.61,0.49-13.17c-1.72-1.56-12.23-15.62-12.23-15.62L253.69,239.79z"/>
				<path class="st49" d="M193.4,248.61c0,0-14.56,26.49-17.26,28.87c-2.7,2.38-11.59,5.95-4.31,6.55
					c7.28,0.6,10.79-2.68,15.37-4.17c4.58-1.49,10.25-2.38,8.09-6.25c-2.16-3.87-1.26-12.31,3.39-17.67
					C203.33,250.58,193.4,248.61,193.4,248.61z"/>
				<path class="st50" d="M267.7,187.19c0,0-36.04-1.04-50.34,11.9c-8.36,13.99-28.58,55.26-30.15,59.8
					c1.08,1.19,7.15,3.34,9.84,3.04c7.95-10.47,18.47-19.52,22.65-27.73c5.15-10.12,6.74-15.18,15.1-16.07
					c8.36-0.89,27.23-3.87,32.9-3.87C273.37,214.27,267.7,187.19,267.7,187.19z"/>
				<polygon class="st48" points="299.14,284.09 297.25,284.09 283.7,221.7 287.85,221.7 				"/>
				<polygon class="st48" points="242.54,284.09 244.43,284.09 259.97,219.5 255.82,219.5 				"/>
				<path class="st51" d="M288.24,184.46l-20.96,3.99c0,0-27.85,0.28-40.58,2.9c-11.58,2.38-13.29,16.9,0,36.9
					c7.55,11.36,13.93,20.42,26.98,30.64c3.32-2.69,4.59-3.71,5.51-10.18c-0.94-1.43-3.39-10.38-4.15-12.13
					c-7.22-16.65-16.85-22.71-16.99-24.35c1.62-2.9,42.85,15.12,51.05,4.52C296.94,206.64,288.24,184.46,288.24,184.46z"/>
				<path class="st52" d="M289.11,132.1c-5.52-0.86-11.14,0.3-16.4,4.5c-4.59,5.17-9.79,13.69-9.47,27.75
					c0.4,17.86-2.5,19,0.53,23.91c12.65,5.77,34.29,30.54,29.19,3.98c-3.69-19.23,8.09-33.57-1.41-54.9
					C290.77,135.61,289.81,133.93,289.11,132.1z"/>
				<path class="st53" d="M263.23,171.08c-0.25,9.31-1.44,12.05-0.53,14.97c5.16,0.58,14.59,2.86,16.95,6.5
					c2.7,4.17,5.39,4.76,4.13,1.69c-1.26-3.08-4.58-7.44,0.54-22.42c5.12-14.98,7.55-25.1,2.52-35.51L263.23,171.08z"/>
				<path class="st49" d="M289.11,132.1c-3.4-8.88-4.23-18.86-4.23-18.86l-8.9,2.9c0,0,5.06,12.5,0.2,16.96
					c-1.03,0.95-2.23,2.1-3.47,3.5C277.97,132.41,283.59,131.25,289.11,132.1z"/>
				<path class="st54" d="M285.14,115.61c-0.53-0.52-1.19-1.16-1.88-1.84l-7.26,2.37c-0.01,0.01-0.01,0.03-0.02,0.04
					c0.18,0.44,2.02,5.2,2.27,9.78c2.16-1.45,4.53-3.81,7.24-7.93C285.35,117.11,285.23,116.3,285.14,115.61z"/>
				<path class="st49" d="M282.85,134.89c-9.16,3.54-8.15,14.19-16.58,29.91c-4.37,8.13-8.42,8.01-8.42,8.01s-10.24,0.09-22.62-1.58
					c-7.75-1.05-8.25,1.5-2.85,3.63c10.88,4.29,22.16,8.91,31.26,7.79c9.1-1.12,24.66-26.74,25.47-33.41
					C290.22,140.02,287.47,133.11,282.85,134.89z"/>
				<g>
					<path class="st48" d="M278.13,224.3c-0.57,0-1.15-0.01-1.75-0.02c-7.47-0.2-12.55-1.34-16.64-2.26
						c-4.77-1.07-7.4-1.66-10.45-0.05c-1.17,0.62-2.58,0.07-3.14-1.22s-0.06-2.85,1.11-3.47c4.48-2.36,8.23-1.52,13.42-0.36
						c3.9,0.88,8.76,1.97,15.82,2.16c7.89,0.22,12.71-1.08,15.15-4.06c2.17-2.66,2.81-7.13,2-14.07c-0.28-2.37-0.55-4.35-0.8-6.09
						c-0.69-4.92-1.14-8.16-0.58-13.18c0.52-4.66,1.92-10.87,5.16-22.91c0.37-1.38,1.68-2.16,2.93-1.75
						c1.25,0.41,1.96,1.86,1.59,3.23c-6.04,22.44-5.73,24.62-4.44,33.82c0.25,1.77,0.53,3.78,0.81,6.22
						c1,8.55-0.01,14.34-3.18,18.21C291.89,222.49,286.6,224.3,278.13,224.3z"/>
				</g>
				<path class="st53" d="M194.39,270.93c-9.66,5.21-14.86,8.2-17.96,7.92c-0.73-0.07-1.34-0.15-1.85-0.24
					c-3.45,2.25-8.95,4.9-2.76,5.41c7.28,0.6,10.79-2.68,15.37-4.17c4.58-1.49,10.25-2.38,8.09-6.25
					C194.87,272.86,194.57,271.95,194.39,270.93z"/>
				<path class="st53" d="M268.34,261.65c-0.24,8.44-1.29,16.81-5.97,18.39c-1.24,0.42-2.37,0.48-3.37,0.33
					c-0.74,1-1.63,1.02-2.84,2.49c-1.82,2.23,10.31,0.67,11.73,0s2.02-13.84,3.54-17.19C272.67,262.93,270.17,262.29,268.34,261.65z
					"/>
				<g>
					<path class="st51" d="M231.12,181.75h-30.69c-0.92,0-1.75-0.59-2.14-1.5l-12.4-29.46c-0.55-1.3-0.04-2.85,1.14-3.45
						c1.18-0.6,2.58-0.04,3.13,1.26l11.77,27.96h29.19c1.3,0,2.36,1.16,2.36,2.6C233.48,180.59,232.42,181.75,231.12,181.75z"/>
				</g>
				<path class="st49" d="M237.54,171.53c-6.2-0.1-12.35-4.18-15.41-3.58c-3.06,0.6-13.03,8.23-11.77,8.53
					c1.26,0.3,9.17-4.23,9.44-4.3c0.27-0.07,1.98,3.13,6.2,4.31c4.22,1.18,0.03-3.49,13.12,0.87
					C247.64,180.2,237.54,171.53,237.54,171.53z"/>
				<path class="st55" d="M288.2,124l0.91,8.1c0,0-8.03,0.53-12.02,3.01c-3.99,2.48-9.89,9.65-9.89,9.65l4.81-9.15l0.69-5.85
					L288.2,124z"/>
				<path class="st55" d="M284.78,133.92c-5.96-1.23-8.72,4.66-12.58,14.28c-3.86,9.62-10.46,21.31-11.77,22.82
					c-1.31,1.51-22.11,0-22.11,0s-0.63,6.65,0,7.44c0.63,0.79,4.22,0.69,4.22,0.69s1.44,1.27,2.79,2.27
					c1.35,1,12.76,2.89,18.07,2.59c5.3-0.3,10.16-0.79,10.88-1.69c0.72-0.89,15.19-25.49,16.09-34.32
					C291.25,139.18,287.82,134.55,284.78,133.92z"/>
				<path class="st56" d="M267.2,93.45c-11.27,0.6-9.51,19.31-9.51,19.31s2.93,1,9.06-0.12c-0.47-2.01-0.27-7.14-0.27-7.14
					s0.71,4.17,1.62,6.7c1.3,0.66,2.76,0.07,5.26-0.59c1.28,5.95,4.9,8.46,7.38,9.32c2.74,0.95,5.64,2.08,8.87,0.3
					c3.24-1.79,1.46-20.04-0.26-23.71c-2.58-5.51-6.87-10.44-14.28-7.84C271.35,90.98,267.2,93.45,267.2,93.45z"/>
				<path class="st56" d="M286.81,115.68l4.61,7.43c0,0-5.11,14.09,9.75,20.47c11.64,5,10.26,13.8,5.01,22.66s3.15,16.59,3.15,16.59
					s1.28-9.81,12.59-11.66c15.41-2.52,19.78-25.37,8.27-36.79c-9.53-9.45-12.43-1.62-18.87-10.11c-6.45-8.48-18.62-2.75-18.62-2.75
					l-4.46-7.18L286.81,115.68z"/>
				<g>
					<path class="st56" d="M335.47,157.39c-0.07,0-0.13-0.02-0.2-0.06c-0.2-0.12-0.27-0.39-0.16-0.61
						c3.88-7.82,0.71-17.29-0.88-19.85c-0.17-0.27-0.33-0.55-0.5-0.84c-1.56-2.69-3.51-6.04-13.89-8.11
						c-2.5-0.5-4.52-2.14-6.67-3.87c-4.43-3.59-9.44-7.65-20.34-2.11c-0.21,0.1-0.45,0.01-0.54-0.22c-0.09-0.23,0-0.5,0.2-0.6
						c11.34-5.76,16.56-1.53,21.17,2.21c2.06,1.67,4.01,3.25,6.33,3.71c10.73,2.13,12.78,5.67,14.43,8.51
						c0.17,0.29,0.32,0.56,0.48,0.82c1.67,2.69,4.98,12.61,0.92,20.8C335.76,157.3,335.62,157.39,335.47,157.39z"/>
				</g>
				<g>
					<path class="st56" d="M284.35,123.29c-0.74,0-1.54-0.07-2.39-0.21c-3.94-0.65-9.24-3.13-9.65-17.02
						c-0.01-0.25,0.17-0.46,0.4-0.47c0.23,0,0.42,0.19,0.42,0.44c0.17,5.73,1.2,9.96,3.06,12.59c1.41,2,3.29,3.13,5.89,3.56
						c3.65,0.6,6.07-0.14,7.19-2.21c0.12-0.21,0.37-0.28,0.56-0.16c0.19,0.13,0.26,0.41,0.14,0.62
						C288.94,122.33,287.05,123.29,284.35,123.29z"/>
				</g>
			</g>
			<polygon class="st48" points="131.02,284.09 134.05,284.09 145.83,184.68 139.17,184.68 			"/>
			<polygon class="st48" points="233.8,284.09 230.77,284.09 218.99,184.68 225.65,184.68 			"/>
		</g>
		<g>
			<g>
				<path class="st57" d="M48.71,149.06c-0.14,1.38-0.21,2.79-0.21,4.21c0,0.75,0.02,1.5,0.06,2.24l6.3,2.25
					c0.39,2.93,1.15,5.73,2.23,8.34l-4.18,5.68c0.97,1.88,2.08,3.65,3.31,5.31l6.3-2.27c1.84,2.07,3.94,3.86,6.24,5.29l-0.36,7.31
					c1.76,0.88,3.6,1.61,5.5,2.15l3.89-5.93c1.52,0.28,3.08,0.43,4.67,0.43c1.08,0,2.15-0.07,3.2-0.2l3.6,6.15
					c1.93-0.43,3.8-1.05,5.6-1.83l-0.01-7.32c2.37-1.3,4.56-2.96,6.49-4.92l6.18,2.63c1.31-1.58,2.51-3.29,3.56-5.11l-3.9-5.91
					c1.21-2.54,2.1-5.29,2.63-8.19l6.4-1.88c0.14-1.38,0.21-2.79,0.21-4.21c0-0.75-0.02-1.5-0.06-2.24l-6.3-2.25
					c-0.39-2.93-1.15-5.73-2.23-8.34l4.18-5.68c-0.97-1.88-2.08-3.65-3.31-5.31l-6.3,2.27c-1.84-2.07-3.94-3.86-6.24-5.29l0.36-7.31
					c-1.76-0.88-3.6-1.61-5.5-2.15l-3.89,5.93c-1.52-0.28-3.08-0.43-4.67-0.43c-1.08,0-2.15,0.07-3.2,0.2l-3.6-6.15
					c-1.93,0.43-3.8,1.05-5.6,1.83l0.01,7.32c-2.37,1.3-4.56,2.96-6.49,4.92l-6.18-2.63c-1.31,1.58-2.51,3.29-3.56,5.11l3.9,5.91
					c-1.21,2.54-2.1,5.29-2.63,8.19L48.71,149.06z M82.48,138.57c7.36,0,13.33,6.59,13.33,14.71c0,8.12-5.97,14.71-13.33,14.71
					c-7.36,0-13.33-6.59-13.33-14.71C69.15,145.15,75.12,138.57,82.48,138.57z"/>
				<g>
					<path class="st18" d="M64.3,136.5c0.11,0,0.23,0.04,0.32,0.13c0.21,0.19,0.24,0.54,0.06,0.77c-3.35,4.44-5.19,10.08-5.19,15.87
						c0,2.77,0.41,5.5,1.22,8.09c0.09,0.29-0.05,0.6-0.31,0.7c-0.26,0.1-0.54-0.05-0.63-0.34c-0.85-2.71-1.28-5.56-1.28-8.45
						c0-6.05,1.93-11.93,5.42-16.58C64.01,136.57,64.16,136.5,64.3,136.5z"/>
				</g>
				<g>
					<path class="st18" d="M66.23,171.21c0.12,0,0.25,0.05,0.34,0.15c2.25,2.34,4.86,4.11,7.75,5.27c0.26,0.1,0.39,0.42,0.3,0.7
						s-0.38,0.43-0.64,0.33c-3.02-1.21-5.74-3.06-8.09-5.5c-0.2-0.21-0.21-0.56-0.02-0.78C65.96,171.27,66.1,171.21,66.23,171.21z"
						/>
				</g>
				<g>
					<path class="st18" d="M87.64,177.34c0.22,0,0.43,0.17,0.48,0.42c0.07,0.29-0.09,0.59-0.36,0.67c-1.88,0.52-3.82,0.79-5.77,0.79
						c-0.28,0-0.5-0.25-0.5-0.55c0-0.3,0.22-0.55,0.5-0.55c1.87,0,3.73-0.25,5.53-0.75C87.56,177.35,87.6,177.34,87.64,177.34z"/>
				</g>
			</g>
			<path class="st57" d="M28.37,121.05c0,0.28,0.01,0.57,0.02,0.85l-3.27,2.9c0.26,1.45,0.66,2.84,1.19,4.15l4.22,0.35
				c0.96,1.67,2.2,3.13,3.66,4.28l0.01,4.65c1.18,0.68,2.43,1.22,3.75,1.59l2.89-3.43c0.5,0.06,1,0.09,1.52,0.09
				c1.27,0,2.5-0.19,3.68-0.54l3.31,2.89c1.25-0.6,2.42-1.35,3.5-2.24l-0.63-4.61c1.23-1.36,2.24-2.96,2.95-4.75l4.12-1.05
				c0.35-1.4,0.56-2.87,0.61-4.38l-3.63-2.31c-0.18-2.03-0.73-3.94-1.55-5.66l1.82-4.2c-0.78-1.18-1.67-2.25-2.67-3.2l-3.89,1.68
				c-1.53-1.1-3.26-1.88-5.13-2.25L43,101.7c-0.22-0.01-0.44-0.01-0.66-0.01c-1.1,0-2.17,0.11-3.22,0.33l-1.24,4.41
				c-1.8,0.67-3.44,1.73-4.83,3.09l-4.09-1.01c-0.84,1.09-1.57,2.28-2.18,3.55l2.37,3.84C28.65,117.51,28.37,119.24,28.37,121.05z
				 M42.5,114.26c3.25,0,5.89,2.91,5.89,6.5c0,3.59-2.64,6.5-5.89,6.5c-3.25,0-5.89-2.91-5.89-6.5
				C36.61,117.17,39.25,114.26,42.5,114.26z"/>
			<g>
				<g class="st58">
					<path class="st57" d="M224.62,37.19h-6.4c-2.47,0-4.48-2.22-4.48-4.95v-7.07c0-2.73,2.01-4.95,4.48-4.95h6.4
						c2.47,0,4.48,2.22,4.48,4.95v7.07C229.11,34.97,227.1,37.19,224.62,37.19z M218.22,22.18c-1.5,0-2.72,1.35-2.72,3v7.07
						c0,1.65,1.22,3,2.72,3h6.4c1.5,0,2.72-1.35,2.72-3v-7.07c0-1.65-1.22-3-2.72-3H218.22z"/>
				</g>
				<g class="st58">
					<path class="st57" d="M194.49,37.19h-6.4c-2.47,0-4.48-2.22-4.48-4.95v-7.07c0-2.73,2.01-4.95,4.48-4.95h6.4
						c2.47,0,4.48,2.22,4.48,4.95v7.07C198.98,34.97,196.97,37.19,194.49,37.19z M188.09,22.18c-1.5,0-2.72,1.35-2.72,3v7.07
						c0,1.65,1.22,3,2.72,3h6.4c1.5,0,2.72-1.35,2.72-3v-7.07c0-1.65-1.22-3-2.72-3H188.09z"/>
				</g>
				<g>
					<path class="st59" d="M191.69,33.08c-0.01,0-0.02,0-0.04,0c-0.22-0.01-0.43-0.13-0.56-0.33l-4.6-6.63
						c-0.25-0.37-0.19-0.89,0.14-1.17c0.33-0.28,0.81-0.21,1.06,0.15l4.06,5.84l10.6-12.53c0.29-0.34,0.76-0.36,1.07-0.04
						c0.31,0.31,0.32,0.84,0.04,1.18l-11.21,13.25C192.1,32.98,191.9,33.08,191.69,33.08z"/>
				</g>
			</g>
			<g>
				<rect x="53.9" y="43.05" class="st60" width="54.8" height="99.13"/>
				<rect x="56.77" y="45.07" class="st18" width="50.13" height="93.33"/>
				<g>
					<g>
						<path class="st61" d="M71.76,82.5c1.89-4.48,5.08-5.91,10.32-5.91c6.24,0,9.49,2.5,10.4,6.13
							C81.31,82.88,71.76,82.5,71.76,82.5z"/>
						<path class="st62" d="M79.9,54.8c-2.64,0.82-2.53,2.46-3.41,3.98c-0.88,1.52-2.8,2.54-3.02,3.55
							c-0.23,1.01,0.59,3.13-0.38,4.31c-0.97,1.18-1.3,1.77-0.92,2.96c0.38,1.18,1.23,3.04,1.3,3.3c0.08,0.25,1.15,2.03,2.45,2.28
							c1.3,0.25,3.75,0.68,4.98,1.27c1.23,0.59,5.16-0.76,7.35-0.67c2.19,0.08,3.68-1.69,3.52-2.88c-0.15-1.18,1.61-3.55,1.61-5.58
							c0-2.18-2.3-3.8-2.91-5.24c-0.61-1.44,0.08-3.97-2.22-5.47c-1.45-0.95-2.45-0.86-3.6-1.29C83.5,54.89,81.59,54.27,79.9,54.8z"
							/>
						<path class="st49" d="M83.12,80.16c-0.6,0.97-1.04,1.01-1.68,0c-0.52-0.81-1.53-2.64-1.53-3.57v-9.28
							c0-0.93,0.69-1.69,1.53-1.69h1.68c0.84,0,1.53,0.76,1.53,1.69v9.28C84.65,77.52,83.66,79.29,83.12,80.16z"/>
						<path class="st54" d="M83.12,65.62h-1.68c-0.84,0-1.53,0.76-1.53,1.69v8.28c1.89,0.66,3.62-0.66,4.75-2.15v-6.13
							C84.65,66.38,83.96,65.62,83.12,65.62z"/>
						<ellipse class="st49" cx="82.28" cy="65.72" rx="5.09" ry="7.66"/>
						<path class="st62" d="M84.65,59.62c-3.22,6-7.96,5.41-7.96,5.41s0.11-7.95,3.89-8.37c3.77-0.42,5.99,1.25,6.76,4
							c0.77,2.76,0,4.57,0,4.57s-1.23-1.06-1.84-2.75C84.88,60.8,84.65,59.62,84.65,59.62z"/>
						
							<ellipse transform="matrix(0.9367 -0.3501 0.3501 0.9367 -18.3478 30.9759)" class="st49" cx="76.5" cy="66.23" rx="1.36" ry="2.19"/>
						<path class="st49" d="M86.62,65.6c-0.48,1.11-0.32,2.29,0.35,2.64c0.67,0.35,1.6-0.26,2.07-1.37
							c0.48-1.11,0.32-2.29-0.35-2.64C88.02,63.88,87.1,64.49,86.62,65.6z"/>
						<path class="st18" d="M84.19,69.87c0,0-0.86,1.23-1.91,1.23c-1.06,0-1.91-1.23-1.91-1.23H84.19z"/>
					</g>
					<path class="st60" d="M88.34,94.65H75.48c-0.82,0-1.5-0.74-1.5-1.65c0-0.91,0.67-1.65,1.5-1.65h12.86c0.82,0,1.5,0.74,1.5,1.65
						C89.84,93.9,89.16,94.65,88.34,94.65z"/>
					<path class="st60" d="M90.69,99.72H73.12c-0.82,0-1.5-0.74-1.5-1.65c0-0.91,0.67-1.65,1.5-1.65h17.57c0.82,0,1.5,0.74,1.5,1.65
						C92.19,98.98,91.52,99.72,90.69,99.72z"/>
					<path class="st60" d="M103.28,117.96H60.54c-0.48,0-0.87-0.43-0.87-0.96s0.39-0.96,0.87-0.96h42.74c0.48,0,0.87,0.43,0.87,0.96
						S103.76,117.96,103.28,117.96z"/>
					<path class="st60" d="M103.28,122.41H60.54c-0.48,0-0.87-0.43-0.87-0.96c0-0.53,0.39-0.96,0.87-0.96h42.74
						c0.48,0,0.87,0.43,0.87,0.96C104.15,121.98,103.76,122.41,103.28,122.41z"/>
					<path class="st60" d="M103.28,126.86H60.54c-0.48,0-0.87-0.43-0.87-0.96c0-0.53,0.39-0.96,0.87-0.96h42.74
						c0.48,0,0.87,0.43,0.87,0.96C104.15,126.43,103.76,126.86,103.28,126.86z"/>
					<g>
						<path class="st60" d="M97.3,83.6H66.52c-0.85,0-1.55-0.77-1.55-1.71V50.58c0-0.94,0.69-1.71,1.55-1.71H97.3
							c0.85,0,1.55,0.77,1.55,1.71v31.31C98.85,82.83,98.16,83.6,97.3,83.6z M66.52,50.26c-0.16,0-0.29,0.15-0.29,0.32v31.31
							c0,0.17,0.13,0.32,0.29,0.32H97.3c0.16,0,0.29-0.15,0.29-0.32V50.58c0-0.17-0.13-0.32-0.29-0.32H66.52z"/>
					</g>
					<g>
						<polygon class="st60" points="70.96,104.02 71.85,106.02 73.84,106.34 72.4,107.89 72.74,110.08 70.96,109.04 69.18,110.08 
							69.52,107.89 68.08,106.34 70.07,106.02 						"/>
						<polygon class="st60" points="78.26,104.02 79.15,106.02 81.14,106.34 79.7,107.89 80.04,110.08 78.26,109.04 76.48,110.08 
							76.82,107.89 75.38,106.34 77.37,106.02 						"/>
						<polygon class="st60" points="85.56,104.02 86.45,106.02 88.44,106.34 87,107.89 87.34,110.08 85.56,109.04 83.78,110.08 
							84.12,107.89 82.68,106.34 84.67,106.02 						"/>
						<polygon class="st60" points="92.86,104.02 93.75,106.02 95.74,106.34 94.3,107.89 94.64,110.08 92.86,109.04 91.08,110.08 
							91.42,107.89 89.98,106.34 91.97,106.02 						"/>
					</g>
				</g>
			</g>
			<g>
				<rect x="176.06" y="43.05" class="st60" width="54.8" height="99.13"/>
				<rect x="178.93" y="45.07" class="st18" width="50.13" height="93.33"/>
				<g>
					<g>
						<path class="st63" d="M196.31,65.21c0,4.44,2.42,11.6,8.14,11.37c5.71-0.23,6.98-7.06,7.2-8.99
							C211.86,65.67,196.31,65.21,196.31,65.21z"/>
						<path class="st53" d="M193.93,82.5c1.89-4.48,5.08-5.91,10.32-5.91c6.24,0,9.49,2.5,10.4,6.13
							C203.47,82.88,193.93,82.5,193.93,82.5z"/>
						<path class="st49" d="M205.29,80.16c-0.6,0.97-1.04,1.01-1.68,0c-0.52-0.81-1.53-2.64-1.53-3.57v-9.28
							c0-0.93,0.69-1.69,1.53-1.69h1.68c0.84,0,1.53,0.76,1.53,1.69v9.28C206.82,77.52,205.82,79.29,205.29,80.16z"/>
						<path class="st54" d="M205.29,65.62h-1.68c-0.84,0-1.53,0.76-1.53,1.69v8.28c1.89,0.66,3.62-0.66,4.75-2.15v-6.13
							C206.82,66.38,206.13,65.62,205.29,65.62z"/>
						<ellipse class="st49" cx="204.44" cy="65.72" rx="5.09" ry="7.66"/>
						<path class="st63" d="M207.24,59.89c-0.61,2.36-1.93,2.33-3.78,3.1c-1.85,0.77-2.73,1.55-3.34,3.06
							c-0.77,1.92,0.35,7.52,0.35,7.52s-4.68-3.87-4.14-9.95c0.54-6.08,3.79-8.44,6.85-8.44c3.06,0,4.22,2.06,4.22,2.06
							s1.63,0.01,3.17,2.02c2.07,2.71,1.43,9.28,0,11.64c-1.43,2.36-2.39,3.09-2.36,2.99c0.03-0.11,1.34-5.51,0.64-8.86
							C208.15,61.69,207.24,59.89,207.24,59.89z"/>
						<path class="st18" d="M206.36,69.87c0,0-0.86,1.23-1.91,1.23c-1.06,0-1.91-1.23-1.91-1.23H206.36z"/>
					</g>
					<path class="st60" d="M210.51,94.65h-12.86c-0.82,0-1.5-0.74-1.5-1.65c0-0.91,0.67-1.65,1.5-1.65h12.86
						c0.82,0,1.5,0.74,1.5,1.65C212,93.9,211.33,94.65,210.51,94.65z"/>
					<path class="st60" d="M212.86,99.72h-17.57c-0.82,0-1.5-0.74-1.5-1.65c0-0.91,0.67-1.65,1.5-1.65h17.57
						c0.82,0,1.5,0.74,1.5,1.65C214.36,98.98,213.68,99.72,212.86,99.72z"/>
					<path class="st60" d="M225.45,117.96h-42.74c-0.48,0-0.87-0.43-0.87-0.96s0.39-0.96,0.87-0.96h42.74
						c0.48,0,0.87,0.43,0.87,0.96S225.92,117.96,225.45,117.96z"/>
					<path class="st60" d="M225.45,122.41h-42.74c-0.48,0-0.87-0.43-0.87-0.96c0-0.53,0.39-0.96,0.87-0.96h42.74
						c0.48,0,0.87,0.43,0.87,0.96C226.31,121.98,225.92,122.41,225.45,122.41z"/>
					<path class="st60" d="M225.45,126.86h-42.74c-0.48,0-0.87-0.43-0.87-0.96c0-0.53,0.39-0.96,0.87-0.96h42.74
						c0.48,0,0.87,0.43,0.87,0.96C226.31,126.43,225.92,126.86,225.45,126.86z"/>
					<g>
						<path class="st60" d="M219.47,83.6h-30.78c-0.85,0-1.55-0.77-1.55-1.71V50.58c0-0.94,0.69-1.71,1.55-1.71h30.78
							c0.85,0,1.55,0.77,1.55,1.71v31.31C221.02,82.83,220.32,83.6,219.47,83.6z M188.68,50.26c-0.16,0-0.29,0.15-0.29,0.32v31.31
							c0,0.17,0.13,0.32,0.29,0.32h30.78c0.16,0,0.29-0.15,0.29-0.32V50.58c0-0.17-0.13-0.32-0.29-0.32H188.68z"/>
					</g>
					<g>
						<polygon class="st60" points="193.13,104.02 194.02,106.02 196.01,106.34 194.57,107.89 194.91,110.08 193.13,109.04 
							191.34,110.08 191.68,107.89 190.24,106.34 192.23,106.02 						"/>
						<polygon class="st60" points="200.43,104.02 201.32,106.02 203.31,106.34 201.87,107.89 202.21,110.08 200.43,109.04 
							198.64,110.08 198.98,107.89 197.54,106.34 199.53,106.02 						"/>
						<polygon class="st60" points="207.73,104.02 208.62,106.02 210.61,106.34 209.17,107.89 209.51,110.08 207.73,109.04 
							205.94,110.08 206.28,107.89 204.84,106.34 206.83,106.02 						"/>
						<polygon class="st60" points="215.03,104.02 215.92,106.02 217.91,106.34 216.47,107.89 216.81,110.08 215.03,109.04 
							213.24,110.08 213.58,107.89 212.14,106.34 214.13,106.02 						"/>
					</g>
				</g>
			</g>
			<polygon class="st64" points="182.22,141.19 95.74,141.19 101.86,43.42 185.34,43.42 			"/>
			<g>
				<rect x="104.83" y="24.92" class="st60" width="74.85" height="135.4"/>
				<rect x="108.75" y="27.68" class="st18" width="68.47" height="127.48"/>
				<g>
					<g>
						<path class="st65" d="M136.6,54.45c-0.05-0.16-1.25-7.75-1.39-10.7c-0.14-2.95,4.3-3.37,4.3-3.37s3.63-2.16,6.26-1.05
							c2.63,1.11,4.42,2.97,5.61,5.29c1.19,2.32-1.05,9.55-1.05,9.55L136.6,54.45z"/>
						<path class="st66" d="M128.36,78.85c-0.02-0.12,0.31-3.11,0.32-3.23c0.61-6.29,7.63-8.06,14.65-8.06
							c8.24,0,13.83,1.66,14.72,8.2c0.03,0.19,0.5,3.19,0.48,3.39C143.25,79.38,128.36,78.85,128.36,78.85z"/>
						<path class="st49" d="M144.74,72.44c-0.82,1.33-1.41,1.39-2.3,0c-0.7-1.1-3.06-3.61-3.06-4.88l0.97-12.66
							c0-1.27,0.94-2.31,2.09-2.31h2.3c1.15,0,2.09,1.04,2.09,2.31l0.45,12.66C147.28,68.82,145.47,71.25,144.74,72.44z"/>
						<path class="st54" d="M144.74,52.58h-2.3c-1.15,0-2.09,1.04-2.09,2.31l-0.84,11.23c2.58,0.91,6.07-0.94,7.62-2.97l-0.29-8.26
							C146.83,53.62,145.89,52.58,144.74,52.58z"/>
						<path class="st67" d="M135.69,68.48l3.69,7.53c0,0,1.97-1.79,2.17-1.44c0.19,0.35-0.35,4.79-0.35,4.79s4.4,0.07,4.59-0.15
							c0.19-0.21-0.89-4.82-0.45-4.82c0.45,0,1.79,1.34,1.79,1.34l4.12-7.24l-0.91-0.24l-6.75,4.01l-7.22-3.92L135.69,68.48z"/>
						<polygon class="st53" points="139.91,71.94 142.65,73.97 141.8,79.36 145.5,79.13 144.58,74.23 146.85,71.94 145.78,70.84 
							140.98,70.84 						"/>
						<path class="st66" d="M139.57,64.79l-3.39,3.56c0,0,3.45,6.78,3.64,6.78c0.19,0,2.93-3.74,2.93-3.74l1.75-0.03l2.77,3.21
							l3.22-6.28l-3.28-3.84c0,0-2.8,5.98-3.31,6.12c-0.51,0.14-0.51,0.21-0.93-0.14C142.57,70.06,139.57,64.79,139.57,64.79z"/>
						<ellipse class="st49" cx="143.59" cy="52.71" rx="6.96" ry="10.46"/>
						<path class="st49" d="M137.35,52.55c0.65,1.51,0.44,3.13-0.48,3.6c-0.91,0.48-2.18-0.36-2.83-1.87
							c-0.65-1.51-0.44-3.13,0.48-3.6C135.43,50.2,136.7,51.04,137.35,52.55z"/>
						<path class="st49" d="M149.52,52.55c-0.65,1.51-0.44,3.13,0.48,3.6c0.91,0.48,2.18-0.36,2.83-1.87
							c0.65-1.51,0.44-3.13-0.48-3.6C151.44,50.2,150.17,51.04,149.52,52.55z"/>
						<path class="st18" d="M146.68,57c0,0-1.38,2.47-3.09,2.47c-1.7,0-3.09-2.47-3.09-2.47H146.68z"/>
						<path class="st65" d="M139.51,45.59c2.87-2.21,4.16-1.85,6.31,1.79c2.15,3.64,4.73,3.7,4.73,3.7l0.33-3.77
							c0,0-3.2-6.84-7.5-5.94c-4.3,0.9-6.74,5.17-6.74,5.17s-0.21,8.01,0.39,8.28c0.6,0.27,0.67-2.58,1.1-3.16
							c0.43-0.58-0.43-3.32,0.14-4.59C138.84,45.81,139.51,45.59,139.51,45.59z"/>
						<path class="st65" d="M148.73,49.71c1,1.21,0.62,6.01,1.15,5.96c0.53-0.05,0.72-4.59,0.57-5.06
							C150.31,50.13,148.73,49.71,148.73,49.71z"/>
					</g>
					<path class="st60" d="M159.06,95.39h-31.95c-1.12,0-2.04-1.01-2.04-2.25c0-1.24,0.92-2.25,2.04-2.25h31.95
						c1.12,0,2.04,1.01,2.04,2.25C161.11,94.38,160.19,95.39,159.06,95.39z"/>
					<path class="st60" d="M155.09,102.32h-24c-1.12,0-2.04-1.01-2.04-2.25c0-1.24,0.92-2.25,2.04-2.25h24
						c1.12,0,2.04,1.01,2.04,2.25C157.13,101.3,156.21,102.32,155.09,102.32z"/>
					<path class="st60" d="M172.28,127.23H113.9c-0.65,0-1.19-0.59-1.19-1.31c0-0.72,0.53-1.31,1.19-1.31h58.38
						c0.65,0,1.19,0.59,1.19,1.31C173.46,126.64,172.93,127.23,172.28,127.23z"/>
					<path class="st60" d="M172.28,133.31H113.9c-0.65,0-1.19-0.59-1.19-1.31c0-0.72,0.53-1.31,1.19-1.31h58.38
						c0.65,0,1.19,0.59,1.19,1.31C173.46,132.72,172.93,133.31,172.28,133.31z"/>
					<path class="st60" d="M172.28,139.39H113.9c-0.65,0-1.19-0.59-1.19-1.31s0.53-1.31,1.19-1.31h58.38c0.65,0,1.19,0.59,1.19,1.31
						S172.93,139.39,172.28,139.39z"/>
					<g>
						<path class="st60" d="M164.11,80.05h-42.05c-1.04,0-1.89-0.93-1.89-2.08V35.19c0-1.15,0.85-2.08,1.89-2.08h42.05
							c1.04,0,1.89,0.93,1.89,2.08v42.77C166,79.11,165.15,80.05,164.11,80.05z M122.06,34.5c-0.34,0-0.62,0.31-0.62,0.69v42.77
							c0,0.38,0.28,0.69,0.62,0.69h42.05c0.34,0,0.62-0.31,0.62-0.69V35.19c0-0.38-0.28-0.69-0.62-0.69H122.06z"/>
					</g>
					<g>
						<polygon class="st60" points="123.07,108.2 124.28,110.92 127.01,111.36 125.04,113.48 125.5,116.47 123.07,115.05 
							120.63,116.47 121.1,113.48 119.13,111.36 121.85,110.92 						"/>
						<polygon class="st60" points="133.04,108.2 134.26,110.92 136.98,111.36 135.01,113.48 135.47,116.47 133.04,115.05 
							130.6,116.47 131.07,113.48 129.1,111.36 131.82,110.92 						"/>
						<polygon class="st60" points="143.01,108.2 144.23,110.92 146.95,111.36 144.98,113.48 145.44,116.47 143.01,115.05 
							140.57,116.47 141.04,113.48 139.07,111.36 141.79,110.92 						"/>
						<polygon class="st60" points="152.98,108.2 154.2,110.92 156.92,111.36 154.95,113.48 155.41,116.47 152.98,115.05 
							150.54,116.47 151.01,113.48 149.04,111.36 151.76,110.92 						"/>
						<polygon class="st60" points="163.11,108.2 164.33,110.92 167.05,111.36 165.08,113.48 165.54,116.47 163.11,115.05 
							160.67,116.47 161.14,113.48 159.17,111.36 161.89,110.92 						"/>
					</g>
				</g>
			</g>
			<path class="st68" d="M217.69,33.44c-0.14,0-0.28-0.06-0.39-0.18c-0.22-0.24-0.22-0.63,0-0.87l7.46-8.24
				c0.22-0.24,0.57-0.24,0.79,0c0.22,0.24,0.22,0.63,0,0.87l-7.46,8.24C217.97,33.38,217.83,33.44,217.69,33.44z"/>
			<path class="st68" d="M225.15,33.44c-0.14,0-0.28-0.06-0.39-0.18l-7.46-8.24c-0.22-0.24-0.22-0.63,0-0.87
				c0.22-0.24,0.57-0.24,0.79,0l7.46,8.24c0.22,0.24,0.22,0.63,0,0.87C225.44,33.38,225.3,33.44,225.15,33.44z"/>
		</g>
	</g>
</g>
</svg>
